<svg version="1.1" id="Layer_1" xmlns="http://www.w3.org/2000/svg" xmlns:xlink="http://www.w3.org/1999/xlink" x="0px" y="0px" viewBox="0 0 20 20" style="enable-background:new 0 0 20 20;" xml:space="preserve"><g><path class="aboutCopyRightIconCls" d="M10,0.7c-5.1,0-9.3,4.2-9.3,9.3s4.1,9.3,9.3,9.3c5.1,0,9.3-4.2,9.3-9.3S15.1,0.7,10,0.7z M10,18.3
		c-4.6,0-8.3-3.7-8.3-8.3S5.4,1.7,10,1.7s8.3,3.7,8.3,8.3S14.6,18.3,10,18.3z"></path><g><path class="aboutCopyRightIconCls" d="M7.6,10c0-2.2,1-3.3,3-3.3c0.4,0,0.8,0.1,1.2,0.2c0.4,0.1,0.5,0.3,0.5,0.4c0,0.1,0,0.2-0.1,0.3
			C12.1,7.8,12,7.8,12,7.8c0,0-0.1,0-0.2-0.1c-0.1-0.1-0.3-0.1-0.5-0.2c-0.2-0.1-0.5-0.1-0.7-0.1C9.8,7.4,9.3,7.6,8.9,8
			c-0.3,0.4-0.5,1.1-0.5,2c0,0.9,0.2,1.5,0.5,2c0.3,0.4,0.9,0.6,1.6,0.6c0.3,0,0.5,0,0.8-0.1c0.2-0.1,0.4-0.2,0.6-0.2
			c0.1-0.1,0.2-0.1,0.2-0.1c0.1,0,0.1,0.1,0.2,0.2c0.1,0.1,0.1,0.2,0.1,0.3c0,0.1-0.2,0.3-0.6,0.4c-0.4,0.2-0.8,0.2-1.3,0.2
			c-1,0-1.8-0.3-2.2-0.8C7.8,11.9,7.6,11.1,7.6,10z"></path></g></g></svg>