<svg version="1.1" id="Layer_1" xmlns="http://www.w3.org/2000/svg" xmlns:xlink="http://www.w3.org/1999/xlink" x="0px" y="0px" width="20px" height="20px" viewBox="0 0 20 20" enable-background="new 0 0 20 20" xml:space="preserve"><rect display="none" fill="#1A4C4C" width="20" height="20"></rect><path class="aboutPrivacyPolicyCls" stroke-width="0.3" stroke-miterlimit="10" d="M10.003,2.5c-2.33,0-4.227,1.896-4.227,4.227
	v2.186H4.332c-0.353,0-0.636,0.286-0.636,0.634v7.32c0,0.351,0.283,0.634,0.636,0.634h11.336c0.355,0,0.637-0.283,0.637-0.634V9.543
	c0-0.354-0.281-0.638-0.637-0.638h-1.443V6.724C14.23,4.396,12.336,2.5,10.003,2.5z M7.048,6.727c0-1.629,1.323-2.952,2.955-2.952
	c1.633,0,2.954,1.323,2.954,2.952v2.186H7.058V6.727H7.048z M15.037,10.177v6.043H4.966v-6.043H15.037L15.037,10.177z"></path><g display="none"><g display="inline"><path fill="#64B9BC" d="M12.608,9.213c-2.757,0-5,2.243-5,5s2.243,5,5,5s5-2.243,5-5S15.365,9.213,12.608,9.213z M12.608,18.08
			c-2.133,0-3.867-1.734-3.867-3.867s1.734-3.867,3.867-3.867s3.867,1.734,3.867,3.867S14.741,18.08,12.608,18.08z"></path><path fill="#64B9BC" d="M13.223,13.393l-1.23,1.23l-0.614-0.616l-0.614-0.614l-0.412,0.41l-0.41,0.41l1.026,1.026l1.024,1.024
			l1.643-1.641l1.641-1.641l-0.41-0.41l-0.41-0.41L13.223,13.393z"></path></g><path display="inline" fill="#64B9BC" d="M5.932,10.92c-0.395,0-0.715,0.32-0.715,0.715c0,0.396,0.32,0.716,0.715,0.716h0.473
		c0.395,0,0.715-0.32,0.715-0.716c0-0.395-0.32-0.715-0.715-0.715H5.932z"></path><path display="inline" fill="#64B9BC" d="M7.611,17.783H5.221c-0.788,0-1.43-0.641-1.43-1.43V3.771c0-0.788,0.642-1.43,1.43-1.43
		h8.789c0.788,0,1.43,0.642,1.43,1.43v4.396c0,0.396,0.32,0.715,0.715,0.715c0.396,0,0.715-0.319,0.715-0.715V3.771
		c0-1.577-1.282-2.859-2.859-2.859H5.221c-1.577,0-2.859,1.282-2.859,2.859v12.582c0,1.577,1.282,2.859,2.859,2.859h2.391
		c0.396,0,0.715-0.319,0.715-0.715S8.007,17.783,7.611,17.783z"></path><path display="inline" fill="#64B9BC" d="M13.295,5.201H5.932c-0.395,0-0.715,0.319-0.715,0.715s0.32,0.715,0.715,0.715h7.363
		c0.396,0,0.715-0.319,0.715-0.715S13.69,5.201,13.295,5.201z"></path><path display="inline" fill="#64B9BC" d="M5.932,8.061c-0.395,0-0.715,0.32-0.715,0.715S5.537,9.49,5.932,9.49h2.473
		c0.395,0,0.715-0.32,0.715-0.715s-0.32-0.715-0.715-0.715H5.932z"></path></g><g display="none"><path display="inline" fill="#64B9BC" d="M5.05,7.537c0,0.294,0.237,0.531,0.53,0.531h7.695c0.294,0,0.531-0.237,0.531-0.531
		c0-0.293-0.237-0.53-0.531-0.53H5.58C5.287,7.007,5.05,7.244,5.05,7.537z"></path><path display="inline" fill="#64B9BC" d="M5.58,10.934h7.695c0.294,0,0.531-0.237,0.531-0.531c0-0.293-0.237-0.529-0.531-0.529
		H5.58c-0.293,0-0.53,0.236-0.53,0.529C5.05,10.696,5.287,10.934,5.58,10.934z"></path><path display="inline" fill="#64B9BC" d="M5.58,4.568h2.614c0.293,0,0.53-0.237,0.53-0.531c0-0.293-0.237-0.53-0.53-0.53H5.58
		c-0.293,0-0.53,0.237-0.53,0.53C5.05,4.331,5.287,4.568,5.58,4.568z"></path><path display="inline" fill="#64B9BC" d="M7.312,15.285H5.58c-0.293,0-0.53,0.238-0.53,0.529c0,0.294,0.237,0.531,0.53,0.531h1.731
		c0.293,0,0.53-0.237,0.53-0.531C7.842,15.523,7.604,15.285,7.312,15.285z"></path><path display="inline" fill="#64B9BC" d="M7.312,12.643H5.58c-0.293,0-0.53,0.238-0.53,0.53c0,0.294,0.237,0.531,0.53,0.531h1.731
		c0.293,0,0.53-0.237,0.53-0.531C7.842,12.881,7.604,12.643,7.312,12.643z"></path><path display="inline" fill="#64B9BC" d="M8.979,18.648c-0.048-0.026-0.096-0.05-0.143-0.077c-0.113-0.069-0.222-0.145-0.327-0.226
		C8.447,18.3,8.391,18.25,8.332,18.2c-0.097-0.083-0.193-0.166-0.281-0.259c0-0.001-0.001-0.001-0.002-0.002H3.665V2.061h7.545
		v3.594c0,0.294,0.237,0.531,0.531,0.531h3.594v4.469c0.096,0.09,0.18,0.188,0.266,0.288c0.048,0.056,0.095,0.11,0.139,0.169
		c0.082,0.106,0.157,0.215,0.228,0.33c0.027,0.046,0.051,0.094,0.076,0.141c0.152,0.275,0.273,0.568,0.352,0.88
		c0,0.001,0.001,0.001,0.001,0.002V5.537c0-0.141-0.056-0.276-0.155-0.375l-4.007-4.007C12.135,1.057,12,1,11.859,1H3.135
		c-0.293,0-0.53,0.237-0.53,0.531v16.938c0,0.294,0.237,0.531,0.53,0.531h6.725c0,0-0.001,0-0.002-0.001
		C9.546,18.921,9.254,18.8,8.979,18.648z M12.272,2.692l2.431,2.432h-2.431V2.692z"></path><g display="inline"><path fill="#64B9BC" d="M12.771,11.625c-2.067,0-3.75,1.683-3.75,3.75s1.683,3.75,3.75,3.75s3.75-1.683,3.75-3.75
			S14.838,11.625,12.771,11.625z M12.771,18.275c-1.6,0-2.9-1.301-2.9-2.9s1.301-2.9,2.9-2.9s2.9,1.301,2.9,2.9
			S14.37,18.275,12.771,18.275z"></path><path fill="#64B9BC" d="M13.231,14.76l-0.923,0.923l-0.461-0.462l-0.461-0.461l-0.309,0.308l-0.308,0.308l0.77,0.77l0.769,0.769
			l1.231-1.23l1.23-1.23l-0.308-0.308l-0.308-0.308L13.231,14.76z"></path></g></g></svg>