<svg version="1.1" id="Layer_1" xmlns="http://www.w3.org/2000/svg" xmlns:xlink="http://www.w3.org/1999/xlink" x="0px" y="0px" viewBox="0 0 20 20" style="enable-background:new 0 0 20 20;" xml:space="preserve"><g><g><g><g><path class="aboutVersionCls" d="M17.8,0.7H4.6c-0.2,0-0.4,0.2-0.4,0.4c0,0.2,0.2,0.4,0.4,0.4h13.1c0.4,0,0.8,0.4,0.8,0.8v9.4H1.4V2.2
					c0-0.4,0.4-0.8,0.8-0.8h4.1c0.2,0,0.4-0.2,0.4-0.4c0-0.2-0.2-0.4-0.4-0.4H2.2c-0.8,0-1.5,0.7-1.5,1.5v11.2
					c0,0.8,0.7,1.5,1.5,1.5h5.6v1.6H6.3C6.1,16.6,6,16.8,6,17v2c0,0.2,0.2,0.4,0.4,0.4h7.4c0.2,0,0.4-0.2,0.4-0.4v-2
					c0-0.2-0.2-0.4-0.4-0.4h-1.6V15h5.7c0.8,0,1.5-0.7,1.5-1.5V2.2C19.3,1.4,18.6,0.7,17.8,0.7z M13.3,17.3v1.2l0,0H6.7v-1.2H13.3z
					 M8.6,16.6V15h2.8v1.6H8.6z M18.6,13.5c0,0.4-0.4,0.8-0.8,0.8H2.2c-0.4,0-0.8-0.4-0.8-0.8v-1.2h17.1V13.5z"></path></g></g><g><g><path class="aboutVersionCls" d="M10.2,13.2c-0.1-0.1-0.2-0.1-0.3-0.1c-0.1,0-0.2,0-0.3,0.1c-0.1,0.1-0.1,0.2-0.1,0.3c0,0.1,0,0.2,0.1,0.3
					c0.1,0.1,0.2,0.1,0.3,0.1c0.1,0,0.2,0,0.3-0.1c0.1-0.1,0.1-0.2,0.1-0.3C10.3,13.4,10.3,13.3,10.2,13.2z"></path></g></g></g><g><path class="aboutVersionCls" d="M13.3,5.7h-0.7c-0.1,0-0.2-0.1-0.2-0.2c0-0.1,0-0.2,0.1-0.3l0.5-0.5c0.1-0.1,0.1-0.2,0.1-0.3
			c0-0.1,0-0.2-0.1-0.3l-0.6-0.6c-0.1-0.1-0.4-0.1-0.5,0l-0.5,0.5c-0.1,0.1-0.2,0.1-0.3,0.1c-0.1,0-0.2-0.1-0.2-0.2V3.2
			c0-0.2-0.2-0.4-0.4-0.4H9.6C9.3,2.8,9.2,3,9.2,3.2v0.7C9.2,4,9.1,4.1,9,4.1c-0.1,0-0.2,0-0.3-0.1L8.2,3.6c-0.1-0.1-0.4-0.1-0.5,0
			L7.1,4.2C7,4.3,6.9,4.4,6.9,4.5c0,0.1,0,0.2,0.1,0.3l0.5,0.5c0.1,0.1,0.1,0.2,0.1,0.3c0,0.1-0.1,0.2-0.2,0.2H6.7
			c-0.2,0-0.4,0.2-0.4,0.4V7c0,0.2,0.2,0.4,0.4,0.4h0.7c0.1,0,0.2,0.1,0.2,0.2c0,0.1,0,0.2-0.1,0.3L7.1,8.3C7,8.4,6.9,8.5,6.9,8.6
			c0,0.1,0,0.2,0.1,0.3l0.6,0.6c0.1,0.1,0.4,0.1,0.5,0L8.7,9C8.8,8.9,8.9,8.9,9,8.9C9.1,9,9.2,9,9.2,9.2v0.7c0,0.2,0.2,0.4,0.4,0.4
			h0.9c0.2,0,0.4-0.2,0.4-0.4V9.2C10.8,9,10.9,9,11,8.9c0.1,0,0.2,0,0.3,0.1l0.5,0.5c0.1,0.1,0.4,0.1,0.5,0l0.6-0.6
			c0.1-0.1,0.1-0.2,0.1-0.3c0-0.1,0-0.2-0.1-0.3l-0.5-0.5c-0.1-0.1-0.1-0.2-0.1-0.3c0-0.1,0.1-0.2,0.2-0.2h0.7
			c0.2,0,0.4-0.2,0.4-0.4V6.1C13.7,5.9,13.5,5.7,13.3,5.7z M13.4,7c0,0.1,0,0.1-0.1,0.1h-0.7c-0.2,0-0.4,0.1-0.5,0.3
			c-0.1,0.2,0,0.4,0.1,0.6l0.5,0.5c0,0,0,0.1,0,0.2l-0.6,0.6c0,0-0.1,0-0.2,0l-0.5-0.5c-0.2-0.2-0.4-0.2-0.6-0.1
			c-0.2,0.1-0.3,0.3-0.3,0.5v0.7c0,0.1,0,0.1-0.1,0.1H9.6c-0.1,0-0.1,0-0.1-0.1V9.2c0-0.2-0.1-0.4-0.3-0.5c-0.1,0-0.1,0-0.2,0
			c-0.1,0-0.3,0.1-0.4,0.2L8,9.3c0,0-0.1,0-0.2,0L7.3,8.6c0,0,0-0.1,0-0.2L7.7,8c0.2-0.2,0.2-0.4,0.1-0.6C7.8,7.2,7.6,7.1,7.4,7.1
			H6.7C6.6,7.1,6.6,7,6.6,7V6.1C6.6,6,6.6,6,6.7,6h0.7c0.2,0,0.4-0.1,0.5-0.3c0.1-0.2,0-0.4-0.1-0.6L7.3,4.6c0,0,0-0.1,0-0.2
			l0.6-0.6c0,0,0.1,0,0.2,0l0.5,0.5c0.2,0.2,0.4,0.2,0.6,0.1c0.2-0.1,0.3-0.3,0.3-0.5V3.2c0-0.1,0-0.1,0.1-0.1h0.9
			c0.1,0,0.1,0,0.1,0.1v0.7c0,0.2,0.1,0.4,0.3,0.5c0.2,0.1,0.4,0,0.6-0.1L12,3.8c0,0,0.1,0,0.2,0l0.6,0.6c0,0,0,0.1,0,0.2L12.3,5
			c-0.2,0.2-0.2,0.4-0.1,0.6C12.2,5.8,12.4,6,12.6,6h0.7c0.1,0,0.1,0,0.1,0.1V7z"></path><path class="aboutVersionCls" d="M10,5.3c-0.7,0-1.2,0.6-1.2,1.2c0,0.7,0.6,1.2,1.2,1.2c0.7,0,1.2-0.6,1.2-1.2C11.2,5.8,10.7,5.3,10,5.3z
			 M10,7.5c-0.5,0-1-0.4-1-1s0.4-1,1-1c0.5,0,1,0.4,1,1S10.5,7.5,10,7.5z"></path></g></g></svg>