<svg version="1.1" id="Layer_1" xmlns="http://www.w3.org/2000/svg" xmlns:xlink="http://www.w3.org/1999/xlink" x="0px" y="0px" viewBox="0 0 20 20" style="enable-background:new 0 0 20 20;" xml:space="preserve"><g><path class="aboutSecurityCls" d="M10,4.9c-1.2,0-2.2,1-2.2,2.2v1.1H7.1c-0.2,0-0.3,0.1-0.3,0.3v3.8c0,0.2,0.1,0.3,0.3,0.3h5.8
		c0.2,0,0.3-0.1,0.3-0.3V8.5c0-0.2-0.1-0.3-0.3-0.3h-0.7V7.1C12.2,5.9,11.2,4.9,10,4.9z M8.5,7.1c0-0.8,0.7-1.5,1.5-1.5
		c0.8,0,1.5,0.7,1.5,1.5v1.1h-3L8.5,7.1L8.5,7.1z M12.6,8.8V12H7.4V8.8H12.6L12.6,8.8z"></path><g><path class="aboutSecurityCls" d="M17.7,3.8c0-0.2-0.2-0.5-0.4-0.5c-1.1-0.2-2.3-0.4-3.4-0.8c-1.1-0.4-2.3-1-3.6-1.7c-0.2-0.1-0.3-0.1-0.5,0
			C8.5,1.6,7.3,2.1,6.1,2.5C5,2.9,3.9,3.2,2.8,3.4c-0.2,0-0.4,0.2-0.4,0.5c-0.1,4.7,0.9,8.5,3,11.4c1.2,1.6,2.6,2.9,4.4,3.9
			c0.1,0.1,0.3,0.1,0.5,0c1.7-1,3.2-2.3,4.3-3.9C16.7,12.3,17.8,8.5,17.7,3.8z M13.8,14.7c-1,1.4-2.3,2.6-3.8,3.5
			c-1.5-0.9-2.8-2.1-3.8-3.5C4.3,12,3.3,8.5,3.4,4.3c1.1-0.2,2.1-0.5,3.2-0.9C7.6,3.1,8.8,2.5,10,1.8c1.2,0.7,2.4,1.2,3.5,1.6
			c1.1,0.4,2.1,0.7,3.2,0.9C16.7,8.5,15.7,12,13.8,14.7z"></path></g></g></svg>