<svg version="1.1" id="Layer_1" xmlns="http://www.w3.org/2000/svg" xmlns:xlink="http://www.w3.org/1999/xlink" x="0px" y="0px" viewBox="0 0 20 20" style="enable-background:new 0 0 20 20;" xml:space="preserve"><g><g><path class="aboutInfoCls" d="M10,5.3c0.5,0,1,0.4,1,1s-0.4,1-1,1c-0.5,0-1-0.4-1-1S9.5,5.3,10,5.3z"></path><path class="aboutInfoCls" d="M9.7,8.7C9.4,8.7,9.2,9,9.2,9.3v4.9c0,0.3,0.3,0.6,0.6,0.6c0.3,0,0.6-0.3,0.6-0.6V9.3
			C10.3,9,10.1,8.7,9.7,8.7z"></path></g><path class="aboutInfoCls" d="M10,0.7c-5.1,0-9.3,4.2-9.3,9.3s4.1,9.3,9.3,9.3c5.1,0,9.3-4.2,9.3-9.3S15.1,0.7,10,0.7z M10,18.3
		c-4.6,0-8.3-3.7-8.3-8.3S5.4,1.7,10,1.7s8.3,3.7,8.3,8.3S14.6,18.3,10,18.3z"></path></g></svg>