<svg version="1.1" id="Layer_1" xmlns="http://www.w3.org/2000/svg" xmlns:xlink="http://www.w3.org/1999/xlink" x="0px" y="0px" width="17px" height="17px" viewBox="0 0 20 20" enable-background="new 0 0 20 20" xml:space="preserve"><g><g><g><path class="namePlate_icon" fill="#64B9BC" d="M9.998,0C8.333,0,6.974,1.357,6.974,3.025c0,1.667,1.359,3.025,3.024,3.025
				c1.67,0,3.028-1.358,3.028-3.025C13.026,1.357,11.668,0,9.998,0z M9.998,4.907c-1.035,0-1.88-0.845-1.88-1.882
				c0-1.039,0.845-1.883,1.88-1.883c1.042,0,1.885,0.844,1.885,1.883C11.883,4.062,11.04,4.907,9.998,4.907z"></path></g></g><g><g><path class="namePlate_icon" fill="#64B9BC" d="M13.354,16.959h-0.65V7.586c0-0.313-0.257-0.569-0.572-0.569H6.645c-0.313,0-0.569,0.257-0.569,0.569v1.9
				c0,0.314,0.257,0.571,0.569,0.571h0.653v6.901H6.645c-0.313,0-0.569,0.254-0.569,0.571v1.897C6.075,19.743,6.332,20,6.645,20
				h6.709c0.317,0,0.571-0.257,0.571-0.572V17.53C13.925,17.213,13.671,16.959,13.354,16.959z M12.784,18.858H7.22v-0.756h0.65
				c0.314,0,0.571-0.257,0.571-0.572V9.486c0-0.316-0.257-0.572-0.571-0.572H7.22V8.16h4.342v9.37c0,0.315,0.254,0.572,0.569,0.572
				h0.653V18.858z"></path></g></g></g></svg>