<svg version="1.1" id="Layer_1" xmlns="http://www.w3.org/2000/svg" xmlns:xlink="http://www.w3.org/1999/xlink" x="0px" y="0px" width="20px" height="20px" viewBox="0 0 20 20" enable-background="new 0 0 20 20" xml:space="preserve"><rect display="none" fill="#065151" width="20" height="20"></rect><g><path class="awayBackProps" fill="#64BABC" stroke="#64BABC" stroke-width="0.4" stroke-miterlimit="10" d="M16.711,0.5H3.29
		c-0.212,0-0.385,0.173-0.385,0.385v1.822c0,0.212,0.173,0.385,0.385,0.385h1.091c0.053,1.591,0.428,3.098,1.095,4.379
		c0.721,1.384,1.712,2.38,2.866,2.882c0.051,0.022,0.103,0.033,0.153,0.033c0.148,0,0.291-0.087,0.353-0.232
		c0.085-0.195-0.005-0.42-0.198-0.506c-1.98-0.861-3.387-3.524-3.497-6.556h11.56c0.212,0,0.383-0.173,0.383-0.385V0.885
		C17.094,0.673,16.924,0.5,16.711,0.5z M16.326,2.322H3.675V1.269h12.651V2.322L16.326,2.322z"></path><path class="awayBackProps" fill="#64BABC" stroke="#64BABC" stroke-width="0.4" stroke-miterlimit="10" d="M16.711,16.907h-1.093
		c-0.052-1.59-0.426-3.097-1.094-4.379c-0.578-1.111-1.332-1.973-2.206-2.529c0.73-0.466,1.386-1.153,1.916-2.018
		c0.682-1.105,1.133-2.454,1.31-3.9c0.025-0.211-0.125-0.402-0.336-0.429c-0.212-0.026-0.403,0.125-0.427,0.336
		c-0.324,2.673-1.67,4.894-3.43,5.659C11.211,9.709,11.119,9.847,11.119,10s0.092,0.292,0.232,0.353
		c1.981,0.861,3.387,3.524,3.497,6.557H6.772c0.133-1.188,1.529-2.124,3.228-2.124c1.227,0,2.369,0.51,2.912,1.301
		c0.1,0.146,0.299,0.184,0.444,0.082c0.146-0.1,0.183-0.298,0.082-0.442c-0.669-0.975-1.986-1.58-3.438-1.58
		c-2.057,0-3.743,1.224-3.869,2.764H5.15c0.082-2.269,0.879-4.353,2.168-5.632c0.151-0.149,0.151-0.394,0.003-0.543
		c-0.15-0.151-0.394-0.152-0.545-0.002c-1.43,1.418-2.312,3.707-2.395,6.177H3.29c-0.212,0-0.385,0.173-0.385,0.384v1.822
		c0,0.214,0.173,0.385,0.385,0.385h13.421c0.213,0,0.384-0.171,0.384-0.385v-1.822C17.094,17.082,16.924,16.907,16.711,16.907z
		 M16.326,18.731H3.675v-1.054H4.76h10.48h1.086V18.731z"></path><path class="awayBackProps" fill="#64BABC" stroke="#64BABC" stroke-width="0.4" stroke-miterlimit="10" d="M10,13.724c0.102,0,0.202-0.042,0.271-0.113
		c0.073-0.071,0.112-0.171,0.112-0.272s-0.039-0.2-0.112-0.272c-0.07-0.071-0.17-0.111-0.271-0.111c-0.101,0-0.2,0.04-0.271,0.111
		c-0.072,0.072-0.112,0.171-0.112,0.272s0.04,0.201,0.112,0.272C9.8,13.682,9.899,13.724,10,13.724z"></path><path class="awayBackProps" fill="#64BABC" stroke="#64BABC" stroke-width="0.4" stroke-miterlimit="10" d="M10,11.284c-0.101,0-0.2,0.041-0.271,0.112
		c-0.072,0.072-0.112,0.172-0.112,0.272s0.04,0.201,0.112,0.273C9.8,12.012,9.899,12.055,10,12.055c0.102,0,0.201-0.043,0.271-0.112
		c0.073-0.072,0.112-0.173,0.112-0.273s-0.039-0.2-0.112-0.272C10.202,11.325,10.102,11.284,10,11.284z"></path><path class="awayBackProps" fill="#64BABC" stroke="#64BABC" stroke-width="0.4" stroke-miterlimit="10" d="M10.271,9.729
		c-0.07-0.073-0.17-0.113-0.271-0.113c-0.101,0-0.2,0.041-0.271,0.113C9.656,9.799,9.616,9.899,9.616,10s0.04,0.201,0.112,0.271
		C9.8,10.344,9.899,10.384,10,10.384c0.102,0,0.202-0.04,0.271-0.112c0.073-0.071,0.112-0.171,0.112-0.271
		C10.387,9.899,10.345,9.799,10.271,9.729z"></path><path class="awayBackProps" fill="#64BABC" stroke="#64BABC" stroke-width="0.4" stroke-miterlimit="10" d="M12.262,7.677
		c0.564-0.7,1.01-1.645,1.286-2.732c0.029-0.116,0.003-0.237-0.07-0.332c-0.071-0.093-0.183-0.148-0.303-0.148H6.826
		c-0.119,0-0.231,0.056-0.304,0.148c-0.073,0.094-0.1,0.216-0.069,0.332c0.275,1.088,0.72,2.033,1.285,2.732
		C8.393,8.483,9.175,8.91,10.001,8.91C10.826,8.91,11.609,8.483,12.262,7.677z M10,8.141c-1.217,0-2.178-1.393-2.664-2.906h5.329
		C12.177,6.749,11.217,8.141,10,8.141z"></path></g><g display="none"><g display="inline"><g><path fill="#64BABC" stroke="#64B9BC" stroke-width="0.4" stroke-miterlimit="10" d="M16.718,3.282
				C14.923,1.488,12.537,0.5,10,0.5S5.077,1.488,3.282,3.282C1.488,5.077,0.5,7.462,0.5,10c0,2.537,0.988,4.923,2.782,6.718
				C5.077,18.512,7.462,19.5,10,19.5c2.537,0,4.923-0.988,6.718-2.782C18.512,14.923,19.5,12.537,19.5,10
				C19.5,7.462,18.512,5.077,16.718,3.282z M10,18.743c-4.821,0-8.743-3.923-8.743-8.743S5.179,1.257,10,1.257
				c4.82,0,8.743,3.923,8.743,8.743S14.82,18.743,10,18.743z"></path></g></g><g display="inline"><g><path fill="#64BABC" stroke="#64B9BC" stroke-width="0.4" stroke-miterlimit="10" d="M10,1.992c-4.416,0-8.008,3.592-8.008,8.008
				c0,4.416,3.592,8.007,8.008,8.007s8.008-3.591,8.008-8.007C18.008,5.583,14.416,1.992,10,1.992z M16.46,13.293l-1.092-0.631
				c-0.182-0.105-0.412-0.042-0.517,0.139c-0.105,0.181-0.043,0.413,0.139,0.517l1.09,0.63c-0.555,0.85-1.283,1.578-2.133,2.133
				l-0.63-1.09c-0.104-0.182-0.336-0.244-0.518-0.139c-0.18,0.104-0.242,0.335-0.138,0.517l0.63,1.092
				c-0.882,0.452-1.869,0.729-2.914,0.781V15.98c0-0.21-0.17-0.379-0.378-0.379c-0.209,0-0.378,0.169-0.378,0.379v1.261
				c-1.045-0.053-2.032-0.329-2.914-0.781l0.629-1.092c0.105-0.182,0.043-0.413-0.137-0.517c-0.182-0.105-0.414-0.043-0.517,0.139
				l-0.629,1.09c-0.851-0.555-1.579-1.283-2.133-2.133l1.09-0.63c0.181-0.104,0.243-0.336,0.139-0.517
				c-0.105-0.181-0.337-0.244-0.517-0.139l-1.091,0.631c-0.453-0.883-0.729-1.87-0.782-2.915H4.02c0.208,0,0.379-0.17,0.379-0.378
				c0-0.209-0.171-0.379-0.379-0.379H2.759c0.053-1.044,0.33-2.031,0.782-2.914l1.091,0.629C4.69,7.372,4.756,7.388,4.821,7.388
				c0.13,0,0.257-0.068,0.328-0.189C5.253,7.018,5.191,6.786,5.01,6.682l-1.09-0.63c0.555-0.85,1.283-1.578,2.133-2.133L6.682,5.01
				C6.752,5.131,6.879,5.2,7.01,5.2c0.063,0,0.129-0.017,0.189-0.051C7.38,5.044,7.442,4.813,7.337,4.632L6.708,3.54
				C7.59,3.088,8.577,2.812,9.622,2.759V4.02c0,0.209,0.17,0.379,0.378,0.379c0.209,0,0.379-0.17,0.379-0.379V2.759
				c1.043,0.053,2.031,0.329,2.914,0.781l-0.63,1.092c-0.104,0.181-0.043,0.413,0.138,0.517C12.86,5.183,12.926,5.2,12.99,5.2
				c0.131,0,0.258-0.068,0.327-0.19l0.631-1.09c0.849,0.555,1.578,1.283,2.132,2.133l-1.09,0.63
				c-0.181,0.104-0.243,0.336-0.139,0.517c0.07,0.121,0.197,0.189,0.328,0.189c0.064,0,0.13-0.016,0.189-0.051l1.091-0.63
				c0.452,0.882,0.729,1.869,0.782,2.914h-1.261c-0.21,0-0.38,0.17-0.38,0.379c0,0.209,0.17,0.378,0.38,0.378h1.261
				C17.188,11.423,16.912,12.41,16.46,13.293z"></path></g></g><g display="inline"><g><path fill="#64BABC" stroke="#64B9BC" stroke-width="0.4" stroke-miterlimit="10" d="M10.378,8.946V6.517
				c0-0.208-0.17-0.378-0.378-0.378c-0.209,0-0.378,0.169-0.378,0.378v2.429C9.19,9.102,8.88,9.515,8.88,10
				c0,0.276,0.1,0.527,0.265,0.722l-0.601,1.041c-0.104,0.181-0.042,0.413,0.139,0.518c0.06,0.034,0.124,0.051,0.189,0.051
				c0.13,0,0.257-0.068,0.327-0.188l0.601-1.04c0.064,0.011,0.131,0.017,0.199,0.017c0.618,0,1.12-0.502,1.12-1.119
				C11.12,9.515,10.81,9.102,10.378,8.946z M10,10.363c-0.2,0-0.363-0.163-0.363-0.363C9.637,9.8,9.8,9.637,10,9.637
				S10.363,9.8,10.363,10C10.363,10.2,10.2,10.363,10,10.363z"></path></g></g><g display="inline"><g><path fill="#64BABC" stroke="#64B9BC" stroke-width="0.4" stroke-miterlimit="10" d="M10,4.89c-0.209,0-0.378,0.169-0.378,0.378
				V5.42c0,0.208,0.169,0.378,0.378,0.378c0.208,0,0.378-0.169,0.378-0.378V5.268C10.378,5.06,10.208,4.89,10,4.89z"></path></g></g></g></svg>