<svg version="1.1" id="Layer_1" xmlns="http://www.w3.org/2000/svg" xmlns:xlink="http://www.w3.org/1999/xlink" x="0px" y="0px" width="25px" height="25px" viewBox="0 0 20 20" enable-background="new 0 0 20 20" xml:space="preserve"><g><path fill="#31B4F5" d="M15.968,4.601c-0.204-1.211-0.804-2.316-1.719-3.154C13.229,0.514,11.907,0,10.525,0
		C9.462,0,8.424,0.306,7.534,0.881c-0.74,0.479-1.356,1.125-1.79,1.886c-0.188-0.035-0.385-0.055-0.58-0.055
		c-1.665,0-3.021,1.355-3.021,3.02c0,0.217,0.023,0.424,0.063,0.627c-1.077,0.783-1.73,2.045-1.73,3.389
		c0,1.086,0.403,2.139,1.14,2.975c0.756,0.854,1.755,1.357,2.819,1.418c0.013,0,0.02,0,0.031,0H4.331
		c0.155-0.311,0.345-0.603,0.588-0.846l0.215-0.214h-0.65c-1.603-0.099-2.95-1.622-2.95-3.338c0-1.107,0.595-2.143,1.556-2.702
		c0.223-0.13,0.316-0.4,0.229-0.643C3.24,6.186,3.2,5.963,3.2,5.725c0-1.081,0.883-1.963,1.964-1.963
		c0.231,0,0.458,0.039,0.67,0.117c0.258,0.095,0.545-0.022,0.661-0.271C7.229,2.053,8.811,1.05,10.529,1.05
		c2.313,0,4.22,1.73,4.438,4.026c0.024,0.24,0.204,0.432,0.439,0.471c1.743,0.298,3.06,1.906,3.06,3.744
		c0,1.591-1.021,3.012-2.429,3.557l0.284,1.029c0.725-0.259,1.385-0.699,1.926-1.295c0.826-0.91,1.275-2.076,1.275-3.291
		C19.521,7.095,18.021,5.14,15.968,4.601z"></path><g><path fill="#FFFFFF" d="M14.782,13.123l-5.215,5.215c-0.979,0.979-2.798,1.115-3.638,0.273c-0.842-0.842-0.706-2.659,0.272-3.639
			l5.215-5.215l0.652-0.652c0.65-0.65,1.863-0.742,2.426-0.182c0.561,0.561,0.469,1.771-0.184,2.426L13.658,12l-3.909,3.91
			l-0.652,0.652c-0.324,0.326-0.932,0.371-1.212,0.092c-0.281-0.281-0.234-0.889,0.092-1.213l4.563-4.563l-0.562-0.561L7.416,14.88
			c-0.653,0.651-0.744,1.863-0.185,2.425c0.562,0.563,1.773,0.471,2.426-0.183l0.651-0.653l4.563-4.563
			c0.979-0.979,1.113-2.796,0.273-3.636c-0.842-0.842-2.658-0.705-3.638,0.271l-0.653,0.653L5.64,14.409
			c-1.305,1.304-1.486,3.729-0.366,4.85c1.122,1.121,3.547,0.938,4.851-0.364l5.215-5.215L14.782,13.123z"></path></g></g></svg>