<svg version="1.1" id="Layer_1" xmlns="http://www.w3.org/2000/svg" xmlns:xlink="http://www.w3.org/1999/xlink" x="0px" y="0px" width="20px" height="20px" viewBox="0 0 20 20" enable-background="new 0 0 20 20" xml:space="preserve"><rect display="none" fill="#6AFF87" width="20" height="20"></rect><path fill="#FF0000" d="M15.633,17.142H5.172C2.32,17.142,0,14.7,0,11.7c0-2.722,1.864-4.969,4.459-5.412
	c1.078-2.12,3.185-3.43,5.541-3.43c2.957,0,5.543,2.142,6.24,5.129C18.336,8.305,20,10.294,20,12.548
	C20,15.124,18.082,17.142,15.633,17.142z M10,3.549c-2.148,0-4.063,1.226-4.999,3.199l-0.079,0.17L4.736,6.943
	C2.392,7.263,0.689,9.264,0.689,11.7c0,2.619,2.012,4.752,4.482,4.752h10.461c2.063,0,3.678-1.715,3.678-3.904
	c0-1.994-1.519-3.746-3.385-3.904l-0.26-0.021l-0.051-0.256C15.071,5.575,12.709,3.549,10,3.549z"></path><path fill="#FF0000" d="M15.926,8.644l-0.26-0.021l-0.051-0.256C15.071,5.575,12.709,3.549,10,3.549
	c-2.148,0-4.063,1.226-4.999,3.199l-0.079,0.17L4.736,6.943C2.392,7.263,0.689,9.264,0.689,11.7c0,2.619,2.012,4.752,4.482,4.752
	h10.461c2.063,0,3.678-1.715,3.678-3.904C19.311,10.554,17.792,8.802,15.926,8.644z"></path><g><path fill="#FFFFFF" d="M12.631,14.235c-0.107,0-0.215-0.041-0.297-0.123l-5.161-5.16c-0.164-0.164-0.164-0.43,0-0.594
		s0.429-0.164,0.593,0l5.161,5.162c0.164,0.164,0.164,0.429,0,0.592C12.846,14.194,12.738,14.235,12.631,14.235z"></path><path fill="#FFFFFF" d="M7.469,14.235c-0.107,0-0.214-0.041-0.296-0.123c-0.164-0.163-0.164-0.428,0-0.592l5.161-5.162
		c0.164-0.164,0.43-0.164,0.593,0c0.164,0.164,0.164,0.43,0,0.594l-5.161,5.16C7.684,14.194,7.576,14.235,7.469,14.235z"></path></g></svg>