<svg version="1.1" id="Layer_1" xmlns="http://www.w3.org/2000/svg" xmlns:xlink="http://www.w3.org/1999/xlink" x="0px" y="0px" width="20px" height="20px" viewBox="0 0 20 20" enable-background="new 0 0 20 20" xml:space="preserve"><rect display="none" fill="#47FF3F" width="20" height="20"></rect><g><g><path class="namePlate_icon" fill="#64B9BC" d="M10,7.76c-2.293,0-4.372,1.254-5.906,3.291c-0.125,0.168-0.125,0.4,0,0.566
			c1.534,2.041,3.613,3.295,5.906,3.295s4.372-1.254,5.906-3.291c0.125-0.168,0.125-0.4,0-0.568C14.372,9.014,12.293,7.76,10,7.76z
			 M10.164,13.854c-1.521,0.096-2.778-1.158-2.683-2.682C7.56,9.914,8.579,8.896,9.836,8.816c1.521-0.096,2.778,1.16,2.683,2.684
			C12.438,12.754,11.419,13.773,10.164,13.854z M10.088,12.691c-0.819,0.051-1.497-0.625-1.443-1.443
			c0.042-0.678,0.592-1.227,1.27-1.27c0.82-0.053,1.497,0.623,1.443,1.443C11.313,12.102,10.764,12.648,10.088,12.691z"></path></g><g><path class="namePlate_icon" fill="#64B9BC" d="M16.266,7.407c-0.214-1.271-0.844-2.431-1.806-3.311c-0.826-0.757-1.845-1.242-2.933-1.427
			c-0.319-0.059-0.645-0.091-0.974-0.091l0,0h-0.001c-0.16,0-0.317,0.021-0.476,0.034c-0.119,0.01-0.238,0.009-0.355,0.025
			C9.62,2.653,9.522,2.685,9.421,2.704c-0.441,0.088-0.873,0.213-1.281,0.4C7.888,3.22,7.645,3.353,7.411,3.504
			C6.634,4.006,5.989,4.685,5.532,5.481C5.334,5.445,5.129,5.425,4.923,5.425c0,0,0,0,0,0l0,0c-1.748,0-3.171,1.423-3.171,3.171
			c0,0.227,0.024,0.444,0.065,0.658c-0.989,0.72-1.639,1.823-1.786,3.033C0.011,12.46,0,12.635,0,12.812
			c0,1.14,0.424,2.245,1.196,3.122c0,0,0,0.001,0.001,0.001l0,0c0.027,0.03,0.06,0.053,0.088,0.083
			c0.378,0.405,0.804,0.738,1.271,0.973c0.409,0.206,0.849,0.323,1.299,0.383c0.068,0.009,0.134,0.027,0.202,0.032l0,0
			c0.034,0.003,0.067,0.015,0.102,0.017c0.012,0,0.021,0,0.032,0c0,0,0.001,0,0.001,0h3.537c0.006,0,0.01-0.003,0.016-0.003h6.831
			l0.003-0.001h0.742c0.012,0,0.023,0,0.041,0c1.254-0.091,2.426-0.666,3.298-1.629C19.527,14.835,20,13.609,20,12.334
			C19.996,10.027,18.421,7.975,16.266,7.407z M15.299,16.307h-8.03c-0.009,0-0.017,0.005-0.025,0.005H4.89H4.208
			c-1.682-0.103-3.097-1.703-3.097-3.504c0-1.163,0.625-2.249,1.633-2.838c0.234-0.136,0.333-0.42,0.243-0.675
			C2.904,9.072,2.863,8.838,2.863,8.588c0-1.136,0.925-2.061,2.06-2.061c0.242,0,0.481,0.041,0.703,0.123
			C5.762,6.7,5.905,6.693,6.03,6.643C6.048,6.635,6.062,6.62,6.078,6.611c0.042-0.022,0.085-0.044,0.121-0.077
			c0.03-0.028,0.051-0.066,0.075-0.102c0.015-0.022,0.036-0.04,0.048-0.065c0.02-0.041,0.046-0.077,0.066-0.118
			c0.793-1.563,2.41-2.567,4.17-2.567c0.002,0,0.004,0.001,0.006,0.001c0.33,0,0.65,0.037,0.961,0.104
			c0.02,0.005,0.039,0.013,0.06,0.018c0.294,0.068,0.58,0.16,0.853,0.278c1.512,0.659,2.613,2.082,2.78,3.826
			c0.025,0.251,0.214,0.452,0.461,0.493c1.83,0.313,3.212,2.003,3.212,3.932C18.89,14.379,17.281,16.154,15.299,16.307z"></path><path class="namePlate_icon" fill="#64B9BC" d="M4.157,17.422c-0.034-0.002-0.066-0.014-0.101-0.017c-0.003,0.006-0.007,0.011-0.01,0.017H4.157z"></path></g></g></svg>