<svg version="1.1" id="Layer_1" xmlns="http://www.w3.org/2000/svg" xmlns:xlink="http://www.w3.org/1999/xlink" x="0px" y="0px" width="16px" height="16px" viewBox="0 0 16 16" enable-background="new 0 0 16 16" xml:space="preserve"><path class="contactSupportStatusProps" fill="#36DF84" d="M14.429,5.745L14.16,5.746c-0.743-2.754-3.27-4.711-6.162-4.711c-2.875,0-5.399,1.957-6.154,4.711H1.572
	C0.705,5.746,0,6.451,0,7.318v1.765c0,0.866,0.705,1.571,1.572,1.571h0.195c0.252,1.979,1.947,3.515,3.993,3.515h0.376
	c0.198,0.468,0.662,0.796,1.201,0.796h1.324c0.721,0,1.307-0.586,1.307-1.306c0-0.721-0.586-1.307-1.307-1.307H7.338
	c-0.539,0-1.002,0.329-1.201,0.796H5.761c-1.656,0-3.005-1.348-3.005-3.004v-3.83C3.284,3.844,5.48,2.056,7.998,2.056
	c2.533,0,4.732,1.787,5.246,4.257v3.831c0,0.282,0.229,0.511,0.511,0.511h0.674c0.867,0,1.571-0.705,1.571-1.571V7.317
	C16,6.451,15.296,5.745,14.429,5.745z M7.338,13.373h1.324c0.158,0,0.285,0.129,0.285,0.286s-0.127,0.285-0.285,0.285H7.338
	c-0.157,0-0.285-0.128-0.285-0.285S7.181,13.373,7.338,13.373z M1.021,9.083V7.318c0-0.305,0.247-0.552,0.551-0.552l0.163,0.001
	v2.866H1.572C1.269,9.634,1.021,9.387,1.021,9.083z M14.98,9.083c0,0.303-0.248,0.55-0.551,0.55h-0.164V6.767h0.164
	c0.303,0,0.551,0.247,0.551,0.551V9.083z"></path></svg>