<svg version="1.1" id="Layer_1" xmlns="http://www.w3.org/2000/svg" xmlns:xlink="http://www.w3.org/1999/xlink" x="0px" y="0px" width="20px" height="20px" viewBox="0 0 20 20" enable-background="new 0 0 20 20" xml:space="preserve"><g><circle fill="#FF0000" cx="2.258" cy="16.191" r="2.258"></circle><path fill="#FF0000" d="M0.098,10.585c0,0.023,0.045-3.183,0.023-3.213c6.93,0,11.039,5.854,11.039,11.114
		c0.022,0.023-3.229-0.021-3.229-0.021C7.931,14.829,5.223,10.585,0.098,10.585z"></path><g><g><path fill="#FF0000" d="M15.097,7.124l1.811-1.81c0.199-0.2,0.199-0.523,0-0.723c-0.201-0.2-0.524-0.2-0.725,0l-1.81,1.81
				l-1.81-1.81c-0.199-0.2-0.524-0.2-0.724-0.001c-0.2,0.201-0.2,0.524,0,0.724l1.81,1.81l-1.81,1.81c-0.2,0.2-0.2,0.523,0,0.724
				c0.199,0.2,0.524,0.2,0.724,0l1.81-1.81l1.81,1.81c0.2,0.2,0.523,0.2,0.725,0c0.199-0.2,0.199-0.524,0-0.724L15.097,7.124z"></path><path fill="#FF0000" d="M18.354,3.144c-1.063-1.064-2.478-1.65-3.981-1.65s-2.918,0.586-3.982,1.65
				c-2.195,2.194-2.195,5.766,0,7.961c1.064,1.063,2.478,1.649,3.982,1.649s2.918-0.586,3.981-1.649
				C20.549,8.91,20.549,5.338,18.354,3.144z M17.63,10.381c-0.87,0.87-2.026,1.348-3.257,1.348s-2.388-0.479-3.258-1.348
				c-1.796-1.796-1.796-4.719,0-6.514c0.87-0.871,2.027-1.35,3.258-1.35s2.387,0.479,3.257,1.35
				C19.426,5.663,19.426,8.585,17.63,10.381z"></path></g><g><path fill="#FF0000" d="M14.638,14.179c-0.604,0-1.189-0.075-1.75-0.214c0.47,1.382,0.733,2.894,0.733,4.521
				c0.022,0,3.251,0.046,3.205,0c0-1.572-0.205-3.072-0.583-4.488C15.727,14.114,15.189,14.179,14.638,14.179z"></path><path fill="#FF0000" d="M7.388,6.93c0-1.175,0.28-2.282,0.776-3.263C5.732,2.313,2.971,1.556,0.121,1.556
				c-0.023,0.022-0.023,3.386,0,3.364c2.562,0,5.099,0.748,7.27,2.116C7.39,7,7.388,6.965,7.388,6.93z"></path></g></g></g></svg>