<svg version="1.1" id="Layer_1" xmlns="http://www.w3.org/2000/svg" xmlns:xlink="http://www.w3.org/1999/xlink" x="0px" y="0px" width="20px" height="20px" viewBox="0 0 20 20" enable-background="new 0 0 20 20" xml:space="preserve"><rect display="none" fill="#E59898" width="20" height="20"></rect><g><circle fill="#FF0000" cx="15.536" cy="8.644" r="4.464"></circle><g><path fill="#FF0000" d="M10.145,8.624c0.006-1.574,0.689-2.985,1.771-3.968H1.119c-0.076,0-0.143,0.028-0.212,0.043l6.907,5.921
			L10.145,8.624z"></path><path fill="#FF0000" d="M0.066,5.449C0.033,5.552,0,5.656,0,5.773v8.93c0,0.076,0.028,0.145,0.044,0.219L4.79,9.498L0.066,5.449z"></path><path fill="#FF0000" d="M10.713,11.049L9.99,10.222l-1.813,1.555c-0.104,0.09-0.233,0.135-0.362,0.135s-0.258-0.045-0.361-0.135
			l-1.816-1.555l-4.839,5.532c0.104,0.033,0.204,0.064,0.321,0.064h13.393c0.115,0,0.215-0.031,0.318-0.064l-2.305-2.635
			C11.756,12.602,11.131,11.885,10.713,11.049z"></path></g><path fill="#FFFFFF" d="M17.518,10.623c0.143-0.146,0.143-0.379-0.004-0.525l-1.451-1.451l1.451-1.453
		c0.146-0.145,0.146-0.379,0-0.524c-0.145-0.146-0.379-0.146-0.523,0L15.537,8.12l-1.451-1.451c-0.146-0.146-0.379-0.146-0.525,0
		c-0.146,0.146-0.146,0.38,0,0.524l1.451,1.453l-1.455,1.451c-0.145,0.146-0.145,0.38,0,0.525c0.074,0.072,0.168,0.108,0.266,0.108
		c0.096,0,0.191-0.036,0.264-0.108l1.451-1.451l1.453,1.451c0.072,0.072,0.166,0.108,0.264,0.108
		C17.35,10.731,17.445,10.695,17.518,10.623L17.518,10.623z"></path></g></svg>