<svg version="1.1" id="Layer_1" xmlns="http://www.w3.org/2000/svg" xmlns:xlink="http://www.w3.org/1999/xlink" x="0px" y="0px" width="20px" height="20px" viewBox="0 0 20 20" enable-background="new 0 0 20 20" xml:space="preserve" class="ng-scope"><path class="namePlate_icon" fill-rule="evenodd" clip-rule="evenodd" fill="#64B9BC" d="M10.158,1.053C5.106,1.053,1.106,5,1.106,10
	c0,4.999,4,8.946,9.052,8.946c4.737,0,7.948-2.632,8.631-7.104l0,0c0.105-0.579,0.158-1.211,0.158-1.842
	c0-0.526-0.053-1.105-0.105-1.579h-8.263v2.632H16l-0.157,0.631c-0.633,2.789-2.896,4.631-5.737,4.631
	c-3.421,0-6.369-2.894-6.369-6.314s2.948-6.316,6.421-6.316c1.473,0,2.737,0.422,3.684,1.211l2.053-2.053
	C14.421,1.685,12.526,1.053,10.158,1.053L10.158,1.053z M10.158,20C4.474,20,0.053,15.631,0.053,10c0-5.632,4.42-10,10.104-10
	C13,0,15.369,0.842,17,2.474l0.421,0.368l-3.526,3.526L13.526,6c-0.843-0.842-2-1.264-3.369-1.264C7.316,4.736,4.79,7.21,4.79,10
	c0,2.788,2.526,5.263,5.368,5.263c2.159,0,3.79-1.211,4.527-3.158H9.526V7.368h10.21l0.053,0.421
	C19.895,8.421,19.947,9.21,19.947,10c0,0.684-0.053,1.368-0.158,1.999C19.105,16.946,15.369,20,10.158,20z"></path></svg>