<svg version="1.1" id="Layer_1" xmlns="http://www.w3.org/2000/svg" xmlns:xlink="http://www.w3.org/1999/xlink" x="0px" y="0px" width="20px" height="20px" viewBox="0 0 20 20" enable-background="new 0 0 20 20" xml:space="preserve"><rect display="none" fill="#FFFFFF" width="20" height="20"></rect><g display="none"><path display="inline" fill="#72B8B8" d="M15.633,17.142H5.172C2.32,17.142,0,14.7,0,11.699c0-2.721,1.864-4.968,4.459-5.412
		C5.537,4.167,7.644,2.858,10,2.858c2.957,0,5.543,2.142,6.24,5.128C18.336,8.304,20,10.294,20,12.548
		C20,15.124,18.082,17.142,15.633,17.142z M10,3.548c-2.148,0-4.063,1.226-4.999,3.2l-0.08,0.169L4.736,6.943
		c-2.344,0.32-4.046,2.32-4.046,4.756c0,2.62,2.011,4.752,4.483,4.752h10.46c2.063,0,3.678-1.715,3.678-3.903
		c0-1.995-1.519-3.747-3.385-3.904l-0.26-0.022l-0.051-0.255C15.071,5.575,12.709,3.548,10,3.548z"></path><path display="inline" fill="#72B8B8" d="M15.074,11.386l-5-5.361v-0.04l-0.006-0.005l-0.019,0.02l-0.019-0.02l-0.005,0.005v0.04
		l-5,5.361h2.982l-0.02,3.105h2.038h0.048h2.037l-0.02-3.105H15.074z M10.074,13.866h-0.048H8.617l0.02-3.105H6.463l3.587-3.846
		l3.587,3.846h-2.174l0.02,3.105H10.074z"></path></g><g><g><path class="namePlate_icon" fill="#72B8B8" d="M19.951,12.73L19.951,12.73l-0.002-0.001l0,0v-0.001L13.455,1.417c-0.065-0.114-0.186-0.184-0.316-0.184
			H6.862c-0.131,0-0.251,0.069-0.316,0.182c0,0.001,0,0.002,0,0.002l0,0L0.048,12.73c-0.064,0.112-0.064,0.25,0,0.362l3.113,5.488
			c0.064,0.113,0.186,0.185,0.316,0.186c0,0,0,0,0.001,0c0,0,0.001,0,0.001,0l0,0h13.046c0.131-0.001,0.25-0.107,0.315-0.221
			l3.11-5.452C20.016,12.981,20.016,12.843,19.951,12.73z M12.928,1.964l6.077,10.586l-5.427,0.015L7.493,1.964H12.928z
			 M12.738,12.566l-5.498,0.015l2.752-4.795L12.738,12.566z M0.785,12.914L6.862,2.332l2.711,4.722L3.48,17.665L0.785,12.914z
			 M16.313,18.001L4.109,18.034l2.711-4.721l12.184-0.034L16.313,18.001z"></path></g></g></svg>