<svg aria-hidden="true" style="position: absolute; width: 0; height: 0; overflow: hidden;" version="2" xmlns="http://www.w3.org/2000/svg" xmlns:xlink="http://www.w3.org/1999/xlink">
  <defs>
  
    <symbol id="im-np-cs-statusIcon" viewBox="0 0 16 16">
      <title>claritiSupportStatus</title>
      <path fill="statusPath" d="M14.429,5.745L14.16,5.746c-0.743-2.754-3.27-4.711-6.162-4.711c-2.875,0-5.399,1.957-6.154,4.711H1.572
        C0.705,5.746,0,6.451,0,7.318v1.765c0,0.866,0.705,1.571,1.572,1.571h0.195c0.252,1.979,1.947,3.515,3.993,3.515h0.376
        c0.198,0.468,0.662,0.796,1.201,0.796h1.324c0.721,0,1.307-0.586,1.307-1.306c0-0.721-0.586-1.307-1.307-1.307H7.338
        c-0.539,0-1.002,0.329-1.201,0.796H5.761c-1.656,0-3.005-1.348-3.005-3.004v-3.83C3.284,3.844,5.48,2.056,7.998,2.056
        c2.533,0,4.732,1.787,5.246,4.257v3.831c0,0.282,0.229,0.511,0.511,0.511h0.674c0.867,0,1.571-0.705,1.571-1.571V7.317
        C16,6.451,15.296,5.745,14.429,5.745z M7.338,13.373h1.324c0.158,0,0.285,0.129,0.285,0.286s-0.127,0.285-0.285,0.285H7.338
        c-0.157,0-0.285-0.128-0.285-0.285S7.181,13.373,7.338,13.373z M1.021,9.083V7.318c0-0.305,0.247-0.552,0.551-0.552l0.163,0.001
        v2.866H1.572C1.269,9.634,1.021,9.387,1.021,9.083z M14.98,9.083c0,0.303-0.248,0.55-0.551,0.55h-0.164V6.767h0.164
        c0.303,0,0.551,0.247,0.551,0.551V9.083z"/>
    </symbol>

    <symbol id="im-np-storageOneDrive" viewBox="0 0 30 30">
        <path style="fill: var(--secondary-color)" d="M24.25,12.36C23.375,7.874,19.625,4.442,15,4.442c-3.625,0-6.75,2.111-8.25,5.278
			C2.875,10.249,0,13.548,0,17.64c0,4.354,3.375,7.918,7.5,7.918h16.25c3.5,0,6.25-2.903,6.25-6.599
			C30,15.528,27.375,12.624,24.25,12.36z M17.5,16.319v5.279h-5v-5.279H8.75L15,9.721l6.25,6.599H17.5z"/>
        <path style="fill: var(--primary-color)" stroke="#FFFFFF" stroke-miterlimit="10" d="M23.634,12.536c-0.817-4.187-4.317-7.39-8.634-7.39
			c-3.383,0-6.3,1.97-7.7,4.926C3.683,10.566,1,13.645,1,17.465c0,4.063,3.15,7.39,7,7.39h15.167c3.267,0,5.833-2.71,5.833-6.159
			C29,15.492,26.55,12.782,23.634,12.536z M17.333,16.23v4.928h-4.667V16.23h-3.5L15,10.073l5.833,6.16h-3.5V16.23z"/>
    </symbol>

    <symbol id="manageFeedsSettingIcon" viewBox="0 0 20 20">
      <path  fill="#65ACAD" d="M18.795,7.823H16.96c-0.295,0-0.538-0.163-0.65-0.436c-0.113-0.273-0.056-0.559,0.153-0.767l1.296-1.297
        c0.191-0.19,0.297-0.444,0.297-0.713c0-0.27-0.105-0.524-0.297-0.714l-1.654-1.654c-0.379-0.381-1.046-0.381-1.427,0l-1.296,1.297
        c-0.209,0.208-0.496,0.266-0.769,0.153c-0.273-0.114-0.435-0.356-0.435-0.651V1.207c0-0.557-0.453-1.01-1.009-1.01H8.83
        c-0.555,0-1.009,0.454-1.009,1.01v1.834c0,0.295-0.161,0.537-0.435,0.651C7.114,3.806,6.827,3.746,6.619,3.539L5.322,2.241
        c-0.381-0.381-1.047-0.381-1.427,0L2.241,3.896C2.05,4.085,1.944,4.34,1.944,4.61c0,0.269,0.105,0.523,0.297,0.713l1.296,1.297
        c0.208,0.208,0.266,0.494,0.153,0.767C3.578,7.66,3.334,7.823,3.04,7.823H1.206c-0.556,0-1.009,0.452-1.009,1.008v2.339
        c0,0.557,0.454,1.009,1.009,1.009H3.04c0.295,0,0.538,0.163,0.651,0.436c0.113,0.272,0.055,0.559-0.153,0.768l-1.296,1.296
        c-0.191,0.191-0.297,0.445-0.297,0.714c0,0.271,0.105,0.524,0.297,0.715l1.654,1.653c0.381,0.381,1.045,0.382,1.427,0l1.296-1.297
        c0.208-0.209,0.496-0.267,0.768-0.152c0.274,0.112,0.435,0.354,0.435,0.65v1.834c0,0.556,0.454,1.009,1.009,1.009h2.338
        c0.558,0,1.011-0.453,1.011-1.009v-1.834c0-0.296,0.161-0.538,0.435-0.65c0.272-0.114,0.56-0.057,0.767,0.152l1.296,1.297
        c0.383,0.382,1.048,0.38,1.429,0l1.654-1.653c0.191-0.19,0.295-0.444,0.295-0.715c0-0.269-0.104-0.522-0.295-0.714l-1.298-1.296
        c-0.207-0.209-0.265-0.495-0.151-0.768c0.11-0.272,0.355-0.436,0.65-0.436h1.835c0.555,0,1.009-0.452,1.009-1.009V8.831
        C19.804,8.275,19.35,7.823,18.795,7.823z M19.078,11.17c0,0.156-0.128,0.283-0.283,0.283H16.96c-0.59,0-1.097,0.338-1.321,0.883
        c-0.226,0.545-0.108,1.143,0.311,1.56l1.296,1.296c0.111,0.111,0.111,0.291,0,0.401l-1.654,1.653c-0.108,0.11-0.289,0.11-0.399,0
        l-1.297-1.297c-0.417-0.417-1.015-0.535-1.559-0.311c-0.546,0.227-0.885,0.731-0.885,1.322v1.834c0,0.156-0.126,0.283-0.281,0.283
        H8.83c-0.155,0-0.281-0.127-0.281-0.283v-1.834c0-0.591-0.339-1.096-0.885-1.322c-0.182-0.075-0.37-0.112-0.555-0.112
        c-0.368,0-0.726,0.146-1.003,0.422l-1.296,1.297c-0.111,0.111-0.291,0.11-0.4,0l-1.654-1.654c-0.111-0.108-0.111-0.289,0-0.399
        l1.296-1.297c0.417-0.417,0.536-1.014,0.31-1.559c-0.224-0.545-0.731-0.883-1.321-0.883H1.206c-0.155,0-0.284-0.127-0.284-0.283
        V8.831c0-0.156,0.128-0.282,0.284-0.282H3.04c0.59,0,1.097-0.339,1.321-0.884c0.226-0.545,0.109-1.142-0.31-1.56L2.754,4.81
        c-0.111-0.111-0.111-0.291,0-0.401l1.654-1.654c0.109-0.11,0.289-0.11,0.4,0l1.296,1.297c0.416,0.417,1.013,0.536,1.559,0.31
        C8.209,4.137,8.549,3.63,8.549,3.041V1.207c0-0.156,0.126-0.284,0.281-0.284h2.338c0.157,0,0.283,0.127,0.283,0.284v1.834
        c0,0.59,0.339,1.096,0.885,1.322c0.546,0.225,1.142,0.106,1.559-0.31l1.297-1.297c0.11-0.11,0.291-0.11,0.399,0l1.654,1.653
        c0.111,0.111,0.111,0.291,0,0.401l-1.296,1.296c-0.417,0.417-0.536,1.014-0.311,1.56c0.225,0.544,0.731,0.883,1.321,0.883h1.835
        c0.155,0,0.283,0.126,0.283,0.282V11.17z"/>
      <path  fill="#65ACAD" d="M11.168,20H8.83c-0.665,0-1.206-0.541-1.206-1.205v-1.834c0-0.216-0.114-0.388-0.313-0.47
        c-0.2-0.083-0.404-0.04-0.554,0.11l-1.296,1.297c-0.436,0.437-1.268,0.437-1.704,0l-1.654-1.653
        c-0.229-0.227-0.354-0.53-0.354-0.854c0-0.321,0.125-0.624,0.354-0.853l1.296-1.296c0.153-0.152,0.193-0.354,0.111-0.553
        c-0.083-0.201-0.254-0.315-0.47-0.315H1.206C0.541,12.375,0,11.834,0,11.17V8.831c0-0.664,0.541-1.205,1.206-1.205H3.04
        c0.216,0,0.387-0.114,0.47-0.314c0.083-0.199,0.042-0.4-0.11-0.553L2.103,5.462C1.874,5.234,1.748,4.932,1.748,4.61
        c0-0.324,0.126-0.627,0.355-0.854l1.653-1.654c0.434-0.435,1.268-0.436,1.704,0L6.757,3.4c0.15,0.151,0.356,0.192,0.553,0.111
        c0.2-0.083,0.314-0.254,0.314-0.47V1.207C7.625,0.542,8.166,0,8.83,0h2.34c0.664,0,1.205,0.542,1.205,1.207v1.834
        c0,0.216,0.114,0.387,0.313,0.47c0.197,0.081,0.402,0.039,0.556-0.111l1.295-1.297c0.436-0.435,1.271-0.437,1.704,0l1.654,1.654
        c0.229,0.228,0.354,0.53,0.354,0.853c0,0.322-0.126,0.625-0.355,0.852l-1.295,1.297c-0.153,0.152-0.193,0.354-0.111,0.553
        c0.083,0.2,0.254,0.314,0.47,0.314h1.835C19.459,7.626,20,8.167,20,8.831v2.339c0,0.664-0.541,1.205-1.205,1.205H16.96
        c-0.217,0-0.389,0.114-0.469,0.313c-0.083,0.2-0.044,0.402,0.109,0.556l1.296,1.295c0.228,0.227,0.354,0.53,0.354,0.853
        c0,0.324-0.126,0.628-0.354,0.854l-1.653,1.653c-0.438,0.435-1.269,0.437-1.705,0l-1.297-1.297
        c-0.149-0.152-0.355-0.192-0.552-0.11c-0.2,0.082-0.314,0.254-0.314,0.47v1.834C12.375,19.459,11.833,20,11.168,20z M7.109,16.057
        c0.119,0,0.237,0.024,0.353,0.072c0.348,0.144,0.555,0.454,0.555,0.832v1.834c0,0.448,0.365,0.813,0.813,0.813h2.338
        c0.45,0,0.814-0.364,0.814-0.813v-1.834c0-0.378,0.208-0.688,0.557-0.832c0.337-0.142,0.72-0.066,0.98,0.195l1.295,1.297
        c0.29,0.291,0.861,0.289,1.152,0l1.653-1.653c0.153-0.152,0.237-0.357,0.237-0.576c0-0.218-0.084-0.423-0.237-0.575l-1.298-1.296
        c-0.266-0.269-0.339-0.635-0.194-0.981c0.14-0.343,0.459-0.557,0.832-0.557h1.835c0.448,0,0.813-0.364,0.813-0.813V8.831
        c0-0.448-0.364-0.812-0.813-0.812H16.96c-0.377,0-0.688-0.208-0.832-0.557s-0.071-0.715,0.196-0.981l1.296-1.297
        c0.154-0.153,0.239-0.357,0.239-0.574c0-0.218-0.085-0.422-0.238-0.575L15.966,2.38c-0.289-0.292-0.859-0.291-1.149,0
        l-1.296,1.297c-0.262,0.261-0.643,0.337-0.981,0.195c-0.349-0.145-0.557-0.456-0.557-0.832V1.207c0-0.449-0.364-0.814-0.813-0.814
        H8.83c-0.448,0-0.813,0.365-0.813,0.814v1.834c0,0.376-0.208,0.688-0.556,0.832c-0.337,0.142-0.72,0.066-0.98-0.195L5.183,2.38
        c-0.29-0.292-0.86-0.29-1.148,0L2.38,4.035C2.226,4.187,2.141,4.392,2.141,4.61c0,0.217,0.085,0.421,0.238,0.574l1.297,1.297
        c0.267,0.266,0.34,0.632,0.195,0.981S3.417,8.019,3.04,8.019H1.206c-0.448,0-0.813,0.364-0.813,0.812v2.339
        c0,0.448,0.365,0.813,0.813,0.813H3.04c0.377,0,0.688,0.208,0.832,0.557c0.145,0.348,0.072,0.714-0.195,0.981L2.38,14.816
        c-0.154,0.154-0.239,0.359-0.239,0.575c0,0.219,0.085,0.422,0.238,0.576l1.656,1.653c0.29,0.291,0.858,0.291,1.148,0l1.296-1.298
        C6.652,16.151,6.875,16.057,7.109,16.057z M11.17,19.274H8.83c-0.263,0-0.478-0.216-0.478-0.479v-1.834
        c0-0.508-0.292-0.945-0.763-1.141c-0.467-0.194-0.99-0.088-1.346,0.267l-1.295,1.298c-0.181,0.181-0.499,0.181-0.679-0.001
        L2.616,15.73c-0.089-0.09-0.14-0.208-0.141-0.337c0-0.129,0.049-0.25,0.141-0.342l1.296-1.296c0.36-0.36,0.462-0.875,0.268-1.345
        c-0.193-0.47-0.631-0.762-1.141-0.762H1.206c-0.265,0-0.48-0.215-0.48-0.479V8.831c0-0.264,0.215-0.479,0.48-0.479H3.04
        c0.509,0,0.946-0.292,1.14-0.762c0.196-0.472,0.094-0.987-0.266-1.346L2.616,4.949C2.524,4.857,2.475,4.737,2.475,4.608
        c0-0.128,0.05-0.249,0.142-0.338L4.27,2.616c0.178-0.179,0.495-0.182,0.677,0l1.297,1.298c0.355,0.356,0.88,0.461,1.345,0.268
        c0.471-0.194,0.763-0.632,0.763-1.141V1.207c0-0.265,0.214-0.48,0.478-0.48h2.338c0.265,0,0.479,0.215,0.479,0.48v1.834
        c0,0.509,0.292,0.946,0.764,1.142c0.463,0.19,0.989,0.085,1.346-0.268l1.295-1.297c0.184-0.181,0.499-0.181,0.68,0.001
        l1.653,1.652c0.091,0.091,0.141,0.212,0.141,0.341c0,0.128-0.051,0.249-0.142,0.338l-1.296,1.296
        c-0.36,0.359-0.462,0.875-0.268,1.346c0.193,0.47,0.631,0.762,1.14,0.762h1.835c0.264,0,0.479,0.215,0.479,0.479v2.339
        c0,0.265-0.216,0.479-0.479,0.479H16.96c-0.509,0-0.946,0.292-1.139,0.762c-0.196,0.471-0.094,0.986,0.266,1.346l1.298,1.295
        c0.187,0.189,0.187,0.493,0,0.68l-1.654,1.654c-0.18,0.18-0.496,0.18-0.678,0l-1.297-1.298c-0.354-0.354-0.881-0.46-1.345-0.268
        c-0.472,0.195-0.764,0.633-0.764,1.141v1.834C11.647,19.059,11.434,19.274,11.17,19.274z M7.109,15.33
        c0.214,0,0.427,0.043,0.63,0.128c0.62,0.257,1.006,0.832,1.006,1.503v1.834c0,0.048,0.039,0.087,0.085,0.087h2.34
        c0.047,0,0.085-0.039,0.085-0.087v-1.834c0-0.671,0.386-1.246,1.007-1.503c0.608-0.254,1.306-0.113,1.771,0.353l1.297,1.297
        c0.043,0.042,0.077,0.044,0.121,0.001l1.655-1.654c0.036-0.034,0.036-0.09-0.001-0.125l-1.295-1.295
        c-0.475-0.473-0.61-1.152-0.353-1.772c0.254-0.62,0.83-1.005,1.502-1.005h1.835c0.048,0,0.087-0.039,0.087-0.087V8.831
        c0-0.047-0.039-0.086-0.087-0.086H16.96c-0.672,0-1.248-0.385-1.503-1.004c-0.257-0.62-0.12-1.3,0.354-1.773l1.295-1.296
        c0.022-0.022,0.026-0.048,0.026-0.061s-0.003-0.04-0.026-0.062l-1.654-1.654c-0.045-0.046-0.079-0.043-0.123,0l-1.296,1.297
        c-0.466,0.465-1.162,0.604-1.771,0.353c-0.621-0.257-1.007-0.833-1.007-1.504V1.207c0-0.048-0.039-0.087-0.087-0.087H8.83
        c-0.047,0-0.085,0.039-0.085,0.087v1.834c0,0.671-0.386,1.247-1.006,1.503C7.13,4.794,6.431,4.655,5.966,4.19L4.67,2.893
        C4.626,2.849,4.591,2.85,4.549,2.892L2.893,4.548C2.871,4.57,2.867,4.596,2.867,4.609s0.003,0.04,0.026,0.062l1.296,1.295
        c0.475,0.473,0.61,1.153,0.353,1.774C4.287,8.359,3.712,8.745,3.04,8.745H1.206c-0.048,0-0.087,0.04-0.087,0.086v2.339
        c0,0.048,0.04,0.087,0.087,0.087H3.04c0.672,0,1.249,0.385,1.503,1.005c0.256,0.618,0.121,1.298-0.354,1.771L2.893,15.33
        c-0.023,0.021-0.026,0.049-0.026,0.062c0,0.014,0.004,0.039,0.025,0.06l1.656,1.655c0.044,0.045,0.078,0.044,0.123,0l1.296-1.297
        C6.278,15.5,6.683,15.33,7.109,15.33z"/>
      <path  fill="#65ACAD" d="M10,6.732c-1.802,0-3.269,1.467-3.269,3.268c0,1.802,1.467,3.269,3.269,3.269s3.269-1.467,3.269-3.269
        C13.269,8.199,11.802,6.732,10,6.732z M10,12.543c-1.402,0-2.543-1.142-2.543-2.543c0-1.401,1.141-2.541,2.543-2.541
        c1.401,0,2.543,1.14,2.543,2.541C12.543,11.401,11.401,12.543,10,12.543z"/>
      <path  fill="#65ACAD" d="M10,13.465c-1.911,0-3.465-1.554-3.465-3.465c0-1.91,1.554-3.464,3.465-3.464S13.465,8.09,13.465,10
        C13.465,11.911,11.911,13.465,10,13.465z M10,6.929c-1.695,0-3.072,1.377-3.072,3.071c0,1.694,1.377,3.072,3.072,3.072
        c1.694,0,3.072-1.378,3.072-3.072C13.072,8.306,11.694,6.929,10,6.929z M10,12.739c-1.511,0-2.739-1.229-2.739-2.739
        c0-1.509,1.229-2.737,2.739-2.737S12.739,8.491,12.739,10C12.739,11.511,11.511,12.739,10,12.739z M10,7.655
        c-1.294,0-2.347,1.052-2.347,2.345c0,1.294,1.052,2.347,2.347,2.347c1.294,0,2.347-1.053,2.347-2.347
        C12.347,8.707,11.294,7.655,10,7.655z"/>
    </symbol>

    <symbol id="removeFeedsIcon" viewBox="0 0 20 20">
      <circle fill="#FF0000" cx="2.258" cy="16.191" r="2.258"/>
      <path fill="#FF0000" d="M0.098,10.585c0,0.023,0.045-3.183,0.023-3.213c6.93,0,11.039,5.854,11.039,11.114
        c0.022,0.023-3.229-0.021-3.229-0.021C7.931,14.829,5.223,10.585,0.098,10.585z"/>
      <path fill="#FF0000" d="M15.097,7.124l1.811-1.81c0.199-0.2,0.199-0.523,0-0.723c-0.201-0.2-0.524-0.2-0.725,0l-1.81,1.81
        l-1.81-1.81c-0.199-0.2-0.524-0.2-0.724-0.001c-0.2,0.201-0.2,0.524,0,0.724l1.81,1.81l-1.81,1.81c-0.2,0.2-0.2,0.523,0,0.724
        c0.199,0.2,0.524,0.2,0.724,0l1.81-1.81l1.81,1.81c0.2,0.2,0.523,0.2,0.725,0c0.199-0.2,0.199-0.524,0-0.724L15.097,7.124z"/>
      <path fill="#FF0000" d="M18.354,3.144c-1.063-1.064-2.478-1.65-3.981-1.65s-2.918,0.586-3.982,1.65
        c-2.195,2.194-2.195,5.766,0,7.961c1.064,1.063,2.478,1.649,3.982,1.649s2.918-0.586,3.981-1.649
        C20.549,8.91,20.549,5.338,18.354,3.144z M17.63,10.381c-0.87,0.87-2.026,1.348-3.257,1.348s-2.388-0.479-3.258-1.348
        c-1.796-1.796-1.796-4.719,0-6.514c0.87-0.871,2.027-1.35,3.258-1.35s2.387,0.479,3.257,1.35
        C19.426,5.663,19.426,8.585,17.63,10.381z"/>
      <path fill="#FF0000" d="M14.638,14.179c-0.604,0-1.189-0.075-1.75-0.214c0.47,1.382,0.733,2.894,0.733,4.521
        c0.022,0,3.251,0.046,3.205,0c0-1.572-0.205-3.072-0.583-4.488C15.727,14.114,15.189,14.179,14.638,14.179z"/>
      <path fill="#FF0000" d="M7.388,6.93c0-1.175,0.28-2.282,0.776-3.263C5.732,2.313,2.971,1.556,0.121,1.556
        c-0.023,0.022-0.023,3.386,0,3.364c2.562,0,5.099,0.748,7.27,2.116C7.39,7,7.388,6.965,7.388,6.93z"/>
    </symbol>
    <symbol id="visitingCardIcon" viewBox="0 0 20 20">
      <path d="M15.202,13.691c0.046,0.418,0.067,0.83,0.077,1.232h1.957v-1.232H15.202z"/>
      <path d="M11.553,6.988c0.236,0.391,0.459,0.801,0.666,1.23h5.018v-1.23H11.553z"/>
      <path d="M13.075,10.342c0.022,0.068,0.05,0.137,0.073,0.207c0.105,0.342,0.2,0.684,0.283,1.023h3.805v-1.23H13.075z"/>
      <path d="M18.054,2.953H1.945C0.871,2.953,0,3.916,0,5.104v9.795c0,1.188,0.871,2.148,1.945,2.148h16.108
        c1.075,0,1.946-0.961,1.946-2.148V5.104C20,3.916,19.129,2.953,18.054,2.953z M19.367,14.49c0,1.088-0.797,1.971-1.782,1.971H2.415
        c-0.985,0-1.784-0.883-1.784-1.971V5.512c0-1.09,0.799-1.971,1.784-1.971h15.17c0.985,0,1.782,0.881,1.782,1.971V14.49z"/>
      <path d="M4.952,7.35c0-1.289,0.984-2.273,2.271-2.273c1.289,0,2.273,0.984,2.273,2.273
        c0,1.287-0.984,2.273-2.273,2.273C5.937,9.623,4.952,8.637,4.952,7.35z M7.224,11.137c-3.484,0-4.545,2.502-4.545,2.502v1.287
        h9.092v-1.287C11.771,13.639,10.71,11.137,7.224,11.137z"/>
    </symbol>

    <symbol id="manageFeedsFollowOnIcon" viewBox="0 0 20 20">
      <path fill="#71D020" stroke="#71D020" stroke-width="0.3" stroke-miterlimit="10" d="M7.223,10.753
            C6.01,9.653,4.44,9.049,2.802,9.049c-0.487,0-0.977,0.053-1.453,0.16c-0.09,0.021-0.15,0.102-0.145,0.194l0.252,3.585
            c0.004,0.06,0.037,0.113,0.088,0.145c0.051,0.031,0.115,0.035,0.169,0.014c0.345-0.149,0.71-0.227,1.085-0.227
            c0.675,0,1.322,0.249,1.822,0.703c0.789,0.715,1.086,1.832,0.76,2.848c-0.018,0.057-0.006,0.118,0.029,0.166
            c0.035,0.047,0.089,0.073,0.147,0.073c0.002,0,0.004,0,0.005,0l3.594-0.101c0.092-0.002,0.167-0.071,0.178-0.161
            C9.595,14.316,8.806,12.188,7.223,10.753L7.223,10.753z M8.984,16.246L5.8,16.335c0.252-1.084-0.1-2.231-0.932-2.985
            c-0.568-0.515-1.304-0.799-2.07-0.799c-0.34,0-0.673,0.055-0.991,0.162L1.585,9.536c0.4-0.078,0.809-0.119,1.217-0.119
            c1.547,0,3.027,0.572,4.172,1.61C8.43,12.346,9.175,14.287,8.984,16.246z"/>
      <path fill="#71D020" stroke="#71D020" stroke-width="0.3" stroke-miterlimit="10" d="M2.113,14.275
            c-0.595,0-1.166,0.252-1.566,0.692C0.182,15.373,0,15.881,0,16.389v0.006c0.002,0.573,0.235,1.146,0.694,1.561
            c0.389,0.354,0.893,0.55,1.419,0.55c0.595,0,1.167-0.254,1.565-0.696c0.783-0.86,0.718-2.201-0.146-2.983
            C3.144,14.471,2.64,14.275,2.113,14.275L2.113,14.275z M3.406,17.561c-0.33,0.363-0.801,0.573-1.293,0.573
            c-0.435,0-0.85-0.161-1.172-0.452c-0.712-0.646-0.766-1.752-0.12-2.465c0.33-0.363,0.801-0.572,1.292-0.572
            c0.435,0,0.851,0.162,1.173,0.453C3.997,15.742,4.052,16.85,3.406,17.561z"/>
      <path fill="#71D020" d="M17.294,5.35l-0.278-0.278c-0.113-0.114-0.301-0.114-0.416,0L13.693,7.98l-1.521-1.523
            c-0.115-0.115-0.302-0.115-0.415,0l-0.278,0.277c-0.112,0.116-0.112,0.302,0,0.416l2.008,2.007
            c0.057,0.058,0.132,0.088,0.205,0.088c0.076,0,0.152-0.03,0.207-0.088l3.394-3.391C17.406,5.649,17.406,5.463,17.294,5.35
            L17.294,5.35z"/>
      <path fill="#71D020" stroke="#71D020" stroke-width="0.3" stroke-miterlimit="10" d="M7.392,6.848
            C5.985,6.11,4.416,5.711,2.796,5.711c-0.521,0-1.045,0.041-1.561,0.123L0.968,2.017c0.602-0.08,1.211-0.121,1.816-0.121
            c2.025,0,3.996,0.455,5.797,1.296c0.07-0.103,0.146-0.204,0.223-0.305c-1.866-0.883-3.914-1.36-6.02-1.36
            c-0.68,0-1.366,0.049-2.039,0.147c-0.096,0.014-0.164,0.1-0.157,0.197l0.293,4.191c0.004,0.051,0.029,0.099,0.07,0.132
            C0.993,6.227,1.046,6.24,1.097,6.231c0.56-0.1,1.132-0.151,1.699-0.151c1.624,0,3.195,0.419,4.59,1.187
            C7.384,7.127,7.386,6.987,7.392,6.848z"/>
      <path fill="#71D020" stroke="#71D020" stroke-width="0.3" stroke-miterlimit="10" d="M16.374,13.837
            c0.101,0.765,0.155,1.537,0.125,2.321l-3.823,0.107c0.053-0.813,0-1.615-0.139-2.395c-0.137-0.037-0.271-0.079-0.407-0.125
            c0.175,0.874,0.239,1.775,0.162,2.693c-0.006,0.053,0.015,0.103,0.048,0.142c0.035,0.037,0.084,0.058,0.135,0.058
            c0.002,0,0.004,0,0.006,0l4.201-0.115c0.096-0.002,0.174-0.08,0.18-0.176c0.046-0.891-0.012-1.769-0.131-2.634
            C16.611,13.757,16.495,13.802,16.374,13.837z"/>
      <path fill="#71D020" d="M18.357,3.143c-1.063-1.062-2.474-1.647-3.974-1.647c-1.499,0-2.911,0.585-3.972,1.647
            c-2.189,2.19-2.189,5.754,0,7.944c1.061,1.062,2.473,1.646,3.972,1.646c1.5,0,2.911-0.584,3.974-1.646
            C20.548,8.897,20.548,5.333,18.357,3.143z M14.385,12.104c-2.754,0-4.988-2.233-4.988-4.988c0-2.754,2.234-4.989,4.988-4.989
            c2.756,0,4.988,2.234,4.988,4.989C19.373,9.869,17.141,12.104,14.385,12.104z"/>
    </symbol>
    <symbol id="manageFeedsFollowOnIconHover" viewBox="0 0 20 20">
      <path fill-rule="evenodd" clip-rule="evenodd" fill="#FFF" d="M7.317,10.732C6.114,9.641,4.556,9.041,2.93,9.041
            c-0.484,0-0.969,0.053-1.442,0.159C1.398,9.22,1.338,9.3,1.344,9.391l0.25,3.559c0.004,0.06,0.037,0.113,0.087,0.144
            s0.114,0.035,0.167,0.013c0.342-0.148,0.705-0.224,1.077-0.224c0.669,0,1.313,0.247,1.809,0.697
            c0.783,0.711,1.078,1.818,0.754,2.826c-0.017,0.057-0.006,0.119,0.029,0.166c0.035,0.047,0.088,0.072,0.146,0.072
            c0.002,0,0.004,0,0.005,0l3.567-0.1c0.091-0.002,0.165-0.07,0.177-0.16C9.672,14.27,8.889,12.156,7.317,10.732L7.317,10.732z
            M9.066,16.184l-3.161,0.09c0.25-1.076-0.099-2.215-0.924-2.964c-0.564-0.512-1.294-0.793-2.055-0.793
            c-0.337,0-0.668,0.054-0.984,0.16l-0.22-3.153C2.119,9.447,2.524,9.407,2.93,9.407c1.535,0,3.004,0.567,4.141,1.597
            C8.516,12.313,9.254,14.24,9.066,16.184z"/>
      <path fill="#FFF" d="M5.671,16.795H5.664c-0.106,0-0.203-0.049-0.266-0.133c-0.064-0.088-0.083-0.199-0.052-0.301
            c0.306-0.953,0.026-2.002-0.712-2.67c-0.727-0.661-1.817-0.842-2.727-0.448c-0.1,0.041-0.213,0.032-0.303-0.021
            c-0.093-0.055-0.153-0.153-0.16-0.262l-0.25-3.558c-0.01-0.165,0.098-0.311,0.259-0.347C1.938,8.946,2.434,8.892,2.93,8.892
            c1.664,0,3.257,0.615,4.488,1.729c1.606,1.458,2.408,3.619,2.143,5.783c-0.02,0.162-0.157,0.287-0.321,0.291L5.671,16.795z
            M2.926,12.733c0.708,0,1.385,0.262,1.909,0.736c0.825,0.749,1.138,1.919,0.795,2.981l0.034,0.045l0.005,0.148l-0.004-0.148
            l3.566-0.1c0.018,0,0.031-0.014,0.033-0.029c0.254-2.066-0.512-4.133-2.047-5.525C6.042,9.776,4.519,9.189,2.93,9.189
            c-0.474,0-0.949,0.053-1.41,0.156C1.502,9.349,1.491,9.364,1.493,9.382l0.25,3.558l0.036,0.032
            C2.151,12.813,2.534,12.733,2.926,12.733z M5.717,16.428l0.043-0.189C6,15.209,5.663,14.129,4.881,13.42
            c-0.775-0.702-1.911-0.933-2.892-0.602L1.807,12.88L1.564,9.403l0.129-0.025c2.007-0.386,4.012,0.188,5.477,1.516
            c1.473,1.334,2.236,3.317,2.044,5.306L9.202,16.33L5.717,16.428z M2.926,12.367c0.797,0,1.563,0.296,2.155,0.831
            c0.814,0.739,1.191,1.843,1.008,2.921l2.84-0.08c0.14-1.85-0.587-3.683-1.957-4.925C5.606,9.877,3.753,9.322,1.88,9.646
            l0.198,2.834C2.353,12.406,2.637,12.367,2.926,12.367z"/>
      <path fill-rule="evenodd" clip-rule="evenodd" fill="#FFF" d="M2.246,14.229c-0.59,0-1.157,0.252-1.555,0.688
            c-0.362,0.402-0.543,0.906-0.543,1.408v0.006c0.002,0.57,0.234,1.139,0.689,1.549c0.386,0.352,0.886,0.547,1.408,0.547
            c0.59,0,1.158-0.252,1.554-0.691c0.777-0.855,0.712-2.186-0.144-2.963C3.269,14.422,2.769,14.229,2.246,14.229L2.246,14.229z
            M3.529,17.488c-0.327,0.361-0.794,0.57-1.283,0.57c-0.431,0-0.843-0.16-1.163-0.449c-0.707-0.643-0.76-1.74-0.119-2.447
            c0.328-0.361,0.795-0.566,1.282-0.566c0.432,0,0.844,0.158,1.164,0.447C4.116,15.684,4.17,16.783,3.529,17.488z"/>
      <path fill="#FFF" d="M2.246,18.574c-0.558,0-1.094-0.207-1.509-0.584C0.271,17.568,0.002,16.963,0,16.332
            c0-0.564,0.207-1.1,0.581-1.516c0.426-0.467,1.033-0.736,1.665-0.736c0.559,0,1.094,0.207,1.509,0.582
            c0.444,0.402,0.705,0.955,0.734,1.557c0.029,0.6-0.177,1.174-0.579,1.615C3.487,18.305,2.88,18.574,2.246,18.574z M2.246,14.377
            c-0.548,0-1.075,0.234-1.445,0.639c-0.325,0.361-0.504,0.826-0.504,1.309c0.002,0.555,0.235,1.078,0.64,1.445
            c0.36,0.328,0.825,0.506,1.309,0.506c0.55,0,1.076-0.232,1.443-0.641c0.349-0.385,0.527-0.883,0.502-1.402
            c-0.025-0.521-0.251-1-0.636-1.35C3.196,14.557,2.73,14.377,2.246,14.377z M2.246,18.207c-0.467,0-0.916-0.174-1.263-0.488
            c-0.768-0.697-0.826-1.889-0.13-2.656c0.355-0.393,0.863-0.617,1.393-0.617c0.467,0,0.916,0.174,1.264,0.488
            c0.768,0.697,0.826,1.889,0.13,2.656C3.283,17.982,2.775,18.207,2.246,18.207z M2.246,14.744c-0.446,0-0.873,0.189-1.172,0.52
            c-0.586,0.646-0.537,1.648,0.109,2.234c0.292,0.266,0.669,0.41,1.063,0.41c0.445,0,0.873-0.188,1.173-0.52
            c0.585-0.646,0.537-1.648-0.109-2.234C3.017,14.889,2.639,14.744,2.246,14.744z"/>
      <path fill-rule="evenodd" clip-rule="evenodd" fill="#FFF" d="M7.485,6.855C6.089,6.124,4.532,5.728,2.924,5.728
            c-0.517,0-1.037,0.041-1.549,0.122L1.109,2.061c0.597-0.08,1.202-0.12,1.803-0.12c2.01,0,3.966,0.452,5.754,1.286
            c0.068-0.103,0.145-0.202,0.221-0.302C7.036,2.048,5.002,1.575,2.912,1.575c-0.675,0-1.356,0.048-2.024,0.146
            C0.793,1.734,0.726,1.819,0.732,1.916l0.291,4.16c0.004,0.051,0.029,0.098,0.07,0.131c0.042,0.032,0.094,0.046,0.145,0.037
            c0.556-0.1,1.124-0.15,1.687-0.15c1.612,0,3.171,0.415,4.555,1.177C7.477,7.133,7.479,6.994,7.485,6.855z"/>
      <path fill="#FFF" d="M7.631,7.524L7.408,7.401C5.54,6.374,3.346,6.019,1.263,6.391L1.207,6.396
            c-0.073,0-0.146-0.025-0.205-0.07C0.927,6.264,0.881,6.179,0.875,6.088L0.584,1.926c-0.013-0.175,0.113-0.33,0.285-0.353
            c0.667-0.098,1.356-0.147,2.043-0.147c2.095,0,4.127,0.458,6.038,1.363l0.166,0.078L8.973,3.057
            C8.911,3.141,8.848,3.224,8.79,3.311L8.717,3.415L8.602,3.361c-2.309-1.077-4.81-1.48-7.334-1.171l0.245,3.488
            c2.043-0.291,4.191,0.075,6.043,1.045l0.082,0.044L7.633,6.862C7.627,6.998,7.625,7.133,7.627,7.269L7.631,7.524z M2.924,5.945
            c1.524,0,3.042,0.372,4.407,1.078c0.001-0.026,0.002-0.052,0.002-0.079C5.509,6.011,3.394,5.681,1.398,5.997l-0.16,0.025
            l-0.287-4.09l0.139-0.019C3.671,1.569,6.245,1.957,8.616,3.04c0.014-0.02,0.027-0.039,0.042-0.058
            C6.834,2.147,4.902,1.724,2.912,1.724c-0.673,0-1.347,0.049-2.002,0.145C0.891,1.871,0.879,1.887,0.88,1.906l0.291,4.16
            l0.036,0.032C1.775,5.997,2.352,5.945,2.924,5.945z"/>
      <path fill-rule="evenodd" clip-rule="evenodd" fill="#FFF" d="M16.4,13.793c0.1,0.758,0.154,1.525,0.125,2.305l-3.795,0.107
            c0.053-0.807,0-1.604-0.139-2.377c-0.135-0.037-0.27-0.078-0.404-0.123c0.174,0.867,0.238,1.762,0.162,2.674
            c-0.006,0.051,0.014,0.1,0.047,0.139c0.035,0.037,0.084,0.057,0.135,0.057c0.002,0,0.004,0,0.006,0l4.168-0.113
            c0.096-0.004,0.174-0.08,0.18-0.174c0.045-0.885-0.012-1.756-0.131-2.615C16.637,13.713,16.521,13.758,16.4,13.793z"/>
      <path fill="#FFF" d="M12.537,16.725h-0.006c-0.092,0-0.18-0.037-0.244-0.104c-0.066-0.078-0.096-0.17-0.086-0.26
            c0.072-0.852,0.018-1.738-0.16-2.629l-0.049-0.253l0.244,0.084c0.131,0.044,0.262,0.085,0.395,0.122l0.092,0.023l0.016,0.094
            c0.135,0.754,0.186,1.508,0.15,2.248l3.492-0.098c0.016-0.656-0.025-1.355-0.127-2.141l-0.018-0.127l0.123-0.036
            c0.086-0.024,0.17-0.056,0.254-0.085l0.264-0.094l0.025,0.181c0.129,0.946,0.174,1.81,0.131,2.644
            c-0.01,0.172-0.152,0.309-0.322,0.314L12.537,16.725z M12.381,13.922c0.145,0.834,0.184,1.664,0.117,2.469l0.033,0.035
            l0.006,0.148l-0.004-0.148l4.168-0.115c0.018,0,0.033-0.014,0.035-0.033c0.037-0.758,0.004-1.547-0.105-2.402
            c-0.021,0.008-0.045,0.016-0.066,0.023c0.1,0.807,0.135,1.527,0.109,2.205l-0.006,0.139l-0.139,0.004l-3.959,0.111l0.012-0.162
            c0.047-0.738,0.008-1.494-0.121-2.248C12.434,13.939,12.406,13.93,12.381,13.922z"/>
      <path fill="#FFF" d="M18.369,3.178c-1.053-1.054-2.453-1.634-3.943-1.634c-1.488,0-2.889,0.581-3.941,1.634
            c-2.174,2.174-2.174,5.711,0,7.885c1.052,1.053,2.453,1.633,3.941,1.633c1.49,0,2.891-0.58,3.943-1.633
            C20.543,8.889,20.543,5.352,18.369,3.178z M14.426,12.071c-2.732,0-4.951-2.217-4.951-4.951s2.218-4.952,4.951-4.952
            c2.734,0,4.951,2.218,4.951,4.952S17.16,12.071,14.426,12.071z"/>
      <path fill="#FFF" d="M14.428,7.904c0.092,0,1.334,1.334,1.334,1.334l0.783-0.785c0,0-1.334-1.243-1.334-1.332
            c0-0.091,1.334-1.333,1.334-1.333l-0.783-0.785c0,0-1.252,1.333-1.334,1.333c-0.08,0-1.334-1.333-1.334-1.333l-0.785,0.785
            c0,0,1.334,1.223,1.334,1.333c0,0.111-1.334,1.332-1.334,1.332l0.785,0.785C13.094,9.238,14.338,7.904,14.428,7.904z"/>
    </symbol>

    <symbol id="manageFeedsFollowOffIcon" viewBox="0 0 20 20">
      <path fill-rule="evenodd" clip-rule="evenodd" fill="#FEC80D" d="M7.317,10.732C6.114,9.641,4.556,9.041,2.93,9.041
            c-0.484,0-0.969,0.053-1.442,0.159C1.398,9.22,1.338,9.3,1.344,9.391l0.25,3.559c0.004,0.06,0.037,0.113,0.087,0.144
            s0.114,0.035,0.167,0.013c0.342-0.148,0.705-0.224,1.077-0.224c0.669,0,1.313,0.247,1.809,0.697
            c0.783,0.711,1.078,1.818,0.754,2.826c-0.017,0.057-0.006,0.119,0.029,0.166c0.035,0.047,0.088,0.072,0.146,0.072
            c0.002,0,0.004,0,0.005,0l3.567-0.1c0.091-0.002,0.165-0.07,0.177-0.16C9.672,14.27,8.889,12.156,7.317,10.732L7.317,10.732z
            M9.066,16.184l-3.161,0.09c0.25-1.076-0.099-2.215-0.924-2.964c-0.564-0.512-1.294-0.793-2.055-0.793
            c-0.337,0-0.668,0.054-0.984,0.16l-0.22-3.153C2.119,9.447,2.524,9.407,2.93,9.407c1.535,0,3.004,0.567,4.141,1.597
            C8.516,12.313,9.254,14.24,9.066,16.184z"/>
      <path fill="#FEC80D" d="M5.671,16.795H5.664c-0.106,0-0.203-0.049-0.266-0.133c-0.064-0.088-0.083-0.199-0.052-0.301
            c0.306-0.953,0.026-2.002-0.712-2.67c-0.727-0.661-1.817-0.842-2.727-0.448c-0.1,0.041-0.213,0.032-0.303-0.021
            c-0.093-0.055-0.153-0.153-0.16-0.262l-0.25-3.558c-0.01-0.165,0.098-0.311,0.259-0.347C1.938,8.946,2.434,8.892,2.93,8.892
            c1.664,0,3.257,0.615,4.488,1.729c1.606,1.458,2.408,3.619,2.143,5.783c-0.02,0.162-0.157,0.287-0.321,0.291L5.671,16.795z
            M2.926,12.733c0.708,0,1.385,0.262,1.909,0.736c0.825,0.749,1.138,1.919,0.795,2.981l0.034,0.045l0.005,0.148l-0.004-0.148
            l3.566-0.1c0.018,0,0.031-0.014,0.033-0.029c0.254-2.066-0.512-4.133-2.047-5.525C6.042,9.776,4.519,9.189,2.93,9.189
            c-0.474,0-0.949,0.053-1.41,0.156C1.502,9.349,1.491,9.364,1.493,9.382l0.25,3.558l0.036,0.032
            C2.151,12.813,2.534,12.733,2.926,12.733z M5.717,16.428l0.043-0.189C6,15.209,5.663,14.129,4.881,13.42
            c-0.775-0.702-1.911-0.933-2.892-0.602L1.807,12.88L1.564,9.403l0.129-0.025c2.007-0.386,4.012,0.188,5.477,1.516
            c1.473,1.334,2.236,3.317,2.044,5.306L9.202,16.33L5.717,16.428z M2.926,12.367c0.797,0,1.563,0.296,2.155,0.831
            c0.814,0.739,1.191,1.843,1.008,2.921l2.84-0.08c0.14-1.85-0.587-3.683-1.957-4.925C5.606,9.877,3.753,9.322,1.88,9.646
            l0.198,2.834C2.353,12.406,2.637,12.367,2.926,12.367z"/>
      <path fill-rule="evenodd" clip-rule="evenodd" fill="#FEC80D" d="M2.246,14.229c-0.59,0-1.157,0.252-1.555,0.688
            c-0.362,0.402-0.543,0.906-0.543,1.408v0.006c0.002,0.57,0.234,1.139,0.689,1.549c0.386,0.352,0.886,0.547,1.408,0.547
            c0.59,0,1.158-0.252,1.554-0.691c0.777-0.855,0.712-2.186-0.144-2.963C3.269,14.422,2.769,14.229,2.246,14.229L2.246,14.229z
            M3.529,17.488c-0.327,0.361-0.794,0.57-1.283,0.57c-0.431,0-0.843-0.16-1.163-0.449c-0.707-0.643-0.76-1.74-0.119-2.447
            c0.328-0.361,0.795-0.566,1.282-0.566c0.432,0,0.844,0.158,1.164,0.447C4.116,15.684,4.17,16.783,3.529,17.488z"/>
      <path fill="#FEC80D" d="M2.246,18.574c-0.558,0-1.094-0.207-1.509-0.584C0.271,17.568,0.002,16.963,0,16.332
            c0-0.564,0.207-1.1,0.581-1.516c0.426-0.467,1.033-0.736,1.665-0.736c0.559,0,1.094,0.207,1.509,0.582
            c0.444,0.402,0.705,0.955,0.734,1.557c0.029,0.6-0.177,1.174-0.579,1.615C3.487,18.305,2.88,18.574,2.246,18.574z M2.246,14.377
            c-0.548,0-1.075,0.234-1.445,0.639c-0.325,0.361-0.504,0.826-0.504,1.309c0.002,0.555,0.235,1.078,0.64,1.445
            c0.36,0.328,0.825,0.506,1.309,0.506c0.55,0,1.076-0.232,1.443-0.641c0.349-0.385,0.527-0.883,0.502-1.402
            c-0.025-0.521-0.251-1-0.636-1.35C3.196,14.557,2.73,14.377,2.246,14.377z M2.246,18.207c-0.467,0-0.916-0.174-1.263-0.488
            c-0.768-0.697-0.826-1.889-0.13-2.656c0.355-0.393,0.863-0.617,1.393-0.617c0.467,0,0.916,0.174,1.264,0.488
            c0.768,0.697,0.826,1.889,0.13,2.656C3.283,17.982,2.775,18.207,2.246,18.207z M2.246,14.744c-0.446,0-0.873,0.189-1.172,0.52
            c-0.586,0.646-0.537,1.648,0.109,2.234c0.292,0.266,0.669,0.41,1.063,0.41c0.445,0,0.873-0.188,1.173-0.52
            c0.585-0.646,0.537-1.648-0.109-2.234C3.017,14.889,2.639,14.744,2.246,14.744z"/>
      <path fill-rule="evenodd" clip-rule="evenodd" fill="#FEC80D" d="M7.485,6.855C6.089,6.124,4.532,5.728,2.924,5.728
            c-0.517,0-1.037,0.041-1.549,0.122L1.109,2.061c0.597-0.08,1.202-0.12,1.803-0.12c2.01,0,3.966,0.452,5.754,1.286
            c0.068-0.103,0.145-0.202,0.221-0.302C7.036,2.048,5.002,1.575,2.912,1.575c-0.675,0-1.356,0.048-2.024,0.146
            C0.793,1.734,0.726,1.819,0.732,1.916l0.291,4.16c0.004,0.051,0.029,0.098,0.07,0.131c0.042,0.032,0.094,0.046,0.145,0.037
            c0.556-0.1,1.124-0.15,1.687-0.15c1.612,0,3.171,0.415,4.555,1.177C7.477,7.133,7.479,6.994,7.485,6.855z"/>
      <path fill="#FEC80D" d="M7.631,7.524L7.408,7.401C5.54,6.374,3.346,6.019,1.263,6.391L1.207,6.396
            c-0.073,0-0.146-0.025-0.205-0.07C0.927,6.264,0.881,6.179,0.875,6.088L0.584,1.926c-0.013-0.175,0.113-0.33,0.285-0.353
            c0.667-0.098,1.356-0.147,2.043-0.147c2.095,0,4.127,0.458,6.038,1.363l0.166,0.078L8.973,3.057
            C8.911,3.141,8.848,3.224,8.79,3.311L8.717,3.415L8.602,3.361c-2.309-1.077-4.81-1.48-7.334-1.171l0.245,3.488
            c2.043-0.291,4.191,0.075,6.043,1.045l0.082,0.044L7.633,6.862C7.627,6.998,7.625,7.133,7.627,7.269L7.631,7.524z M2.924,5.945
            c1.524,0,3.042,0.372,4.407,1.078c0.001-0.026,0.002-0.052,0.002-0.079C5.509,6.011,3.394,5.681,1.398,5.997l-0.16,0.025
            l-0.287-4.09l0.139-0.019C3.671,1.569,6.245,1.957,8.616,3.04c0.014-0.02,0.027-0.039,0.042-0.058
            C6.834,2.147,4.902,1.724,2.912,1.724c-0.673,0-1.347,0.049-2.002,0.145C0.891,1.871,0.879,1.887,0.88,1.906l0.291,4.16
            l0.036,0.032C1.775,5.997,2.352,5.945,2.924,5.945z"/>
      <path fill-rule="evenodd" clip-rule="evenodd" fill="#FEC80D" d="M16.4,13.793c0.1,0.758,0.154,1.525,0.125,2.305l-3.795,0.107
            c0.053-0.807,0-1.604-0.139-2.377c-0.135-0.037-0.27-0.078-0.404-0.123c0.174,0.867,0.238,1.762,0.162,2.674
            c-0.006,0.051,0.014,0.1,0.047,0.139c0.035,0.037,0.084,0.057,0.135,0.057c0.002,0,0.004,0,0.006,0l4.168-0.113
            c0.096-0.004,0.174-0.08,0.18-0.174c0.045-0.885-0.012-1.756-0.131-2.615C16.637,13.713,16.521,13.758,16.4,13.793z"/>
      <path fill="#FEC80D" d="M12.537,16.725h-0.006c-0.092,0-0.18-0.037-0.244-0.104c-0.066-0.078-0.096-0.17-0.086-0.26
            c0.072-0.852,0.018-1.738-0.16-2.629l-0.049-0.253l0.244,0.084c0.131,0.044,0.262,0.085,0.395,0.122l0.092,0.023l0.016,0.094
            c0.135,0.754,0.186,1.508,0.15,2.248l3.492-0.098c0.016-0.656-0.025-1.355-0.127-2.141l-0.018-0.127l0.123-0.036
            c0.086-0.024,0.17-0.056,0.254-0.085l0.264-0.094l0.025,0.181c0.129,0.946,0.174,1.81,0.131,2.644
            c-0.01,0.172-0.152,0.309-0.322,0.314L12.537,16.725z M12.381,13.922c0.145,0.834,0.184,1.664,0.117,2.469l0.033,0.035
            l0.006,0.148l-0.004-0.148l4.168-0.115c0.018,0,0.033-0.014,0.035-0.033c0.037-0.758,0.004-1.547-0.105-2.402
            c-0.021,0.008-0.045,0.016-0.066,0.023c0.1,0.807,0.135,1.527,0.109,2.205l-0.006,0.139l-0.139,0.004l-3.959,0.111l0.012-0.162
            c0.047-0.738,0.008-1.494-0.121-2.248C12.434,13.939,12.406,13.93,12.381,13.922z"/>
      <path fill="#FEC80D" d="M18.369,3.178c-1.053-1.054-2.453-1.634-3.943-1.634c-1.488,0-2.889,0.581-3.941,1.634
            c-2.174,2.174-2.174,5.711,0,7.885c1.052,1.053,2.453,1.633,3.941,1.633c1.49,0,2.891-0.58,3.943-1.633
            C20.543,8.889,20.543,5.352,18.369,3.178z M14.426,12.071c-2.732,0-4.951-2.217-4.951-4.951s2.218-4.952,4.951-4.952
            c2.734,0,4.951,2.218,4.951,4.952S17.16,12.071,14.426,12.071z"/>
      <path fill="#FEC80D" d="M14.428,7.904c0.092,0,1.334,1.334,1.334,1.334l0.783-0.785c0,0-1.334-1.243-1.334-1.332
            c0-0.091,1.334-1.333,1.334-1.333l-0.783-0.785c0,0-1.252,1.333-1.334,1.333c-0.08,0-1.334-1.333-1.334-1.333l-0.785,0.785
            c0,0,1.334,1.223,1.334,1.333c0,0.111-1.334,1.332-1.334,1.332l0.785,0.785C13.094,9.238,14.338,7.904,14.428,7.904z"/>
    </symbol>
    <symbol id="manageFeedsFollowOffIconHover" viewBox="0 0 20 20">
      <path fill="#FFF" stroke="#FFF" stroke-width="0.3" stroke-miterlimit="10" d="M7.223,10.753
            C6.01,9.653,4.44,9.049,2.802,9.049c-0.487,0-0.977,0.053-1.453,0.16c-0.09,0.021-0.15,0.102-0.145,0.194l0.252,3.585
            c0.004,0.06,0.037,0.113,0.088,0.145c0.051,0.031,0.115,0.035,0.169,0.014c0.345-0.149,0.71-0.227,1.085-0.227
            c0.675,0,1.322,0.249,1.822,0.703c0.789,0.715,1.086,1.832,0.76,2.848c-0.018,0.057-0.006,0.118,0.029,0.166
            c0.035,0.047,0.089,0.073,0.147,0.073c0.002,0,0.004,0,0.005,0l3.594-0.101c0.092-0.002,0.167-0.071,0.178-0.161
            C9.595,14.316,8.806,12.188,7.223,10.753L7.223,10.753z M8.984,16.246L5.8,16.335c0.252-1.084-0.1-2.231-0.932-2.985
            c-0.568-0.515-1.304-0.799-2.07-0.799c-0.34,0-0.673,0.055-0.991,0.162L1.585,9.536c0.4-0.078,0.809-0.119,1.217-0.119
            c1.547,0,3.027,0.572,4.172,1.61C8.43,12.346,9.175,14.287,8.984,16.246z"/>
      <path fill="#FFF" stroke="#FFF" stroke-width="0.3" stroke-miterlimit="10" d="M2.113,14.275
            c-0.595,0-1.166,0.252-1.566,0.692C0.182,15.373,0,15.881,0,16.389v0.006c0.002,0.573,0.235,1.146,0.694,1.561
            c0.389,0.354,0.893,0.55,1.419,0.55c0.595,0,1.167-0.254,1.565-0.696c0.783-0.86,0.718-2.201-0.146-2.983
            C3.144,14.471,2.64,14.275,2.113,14.275L2.113,14.275z M3.406,17.561c-0.33,0.363-0.801,0.573-1.293,0.573
            c-0.435,0-0.85-0.161-1.172-0.452c-0.712-0.646-0.766-1.752-0.12-2.465c0.33-0.363,0.801-0.572,1.292-0.572
            c0.435,0,0.851,0.162,1.173,0.453C3.997,15.742,4.052,16.85,3.406,17.561z"/>
      <path fill="#FFF" d="M17.294,5.35l-0.278-0.278c-0.113-0.114-0.301-0.114-0.416,0L13.693,7.98l-1.521-1.523
            c-0.115-0.115-0.302-0.115-0.415,0l-0.278,0.277c-0.112,0.116-0.112,0.302,0,0.416l2.008,2.007
            c0.057,0.058,0.132,0.088,0.205,0.088c0.076,0,0.152-0.03,0.207-0.088l3.394-3.391C17.406,5.649,17.406,5.463,17.294,5.35
            L17.294,5.35z"/>
      <path fill="#FFF" stroke="#FFF" stroke-width="0.3" stroke-miterlimit="10" d="M7.392,6.848
            C5.985,6.11,4.416,5.711,2.796,5.711c-0.521,0-1.045,0.041-1.561,0.123L0.968,2.017c0.602-0.08,1.211-0.121,1.816-0.121
            c2.025,0,3.996,0.455,5.797,1.296c0.07-0.103,0.146-0.204,0.223-0.305c-1.866-0.883-3.914-1.36-6.02-1.36
            c-0.68,0-1.366,0.049-2.039,0.147c-0.096,0.014-0.164,0.1-0.157,0.197l0.293,4.191c0.004,0.051,0.029,0.099,0.07,0.132
            C0.993,6.227,1.046,6.24,1.097,6.231c0.56-0.1,1.132-0.151,1.699-0.151c1.624,0,3.195,0.419,4.59,1.187
            C7.384,7.127,7.386,6.987,7.392,6.848z"/>
      <path fill="#FFF" stroke="#FFF" stroke-width="0.3" stroke-miterlimit="10" d="M16.374,13.837
            c0.101,0.765,0.155,1.537,0.125,2.321l-3.823,0.107c0.053-0.813,0-1.615-0.139-2.395c-0.137-0.037-0.271-0.079-0.407-0.125
            c0.175,0.874,0.239,1.775,0.162,2.693c-0.006,0.053,0.015,0.103,0.048,0.142c0.035,0.037,0.084,0.058,0.135,0.058
            c0.002,0,0.004,0,0.006,0l4.201-0.115c0.096-0.002,0.174-0.08,0.18-0.176c0.046-0.891-0.012-1.769-0.131-2.634
            C16.611,13.757,16.495,13.802,16.374,13.837z"/>
      <path fill="#FFF" d="M18.357,3.143c-1.063-1.062-2.474-1.647-3.974-1.647c-1.499,0-2.911,0.585-3.972,1.647
            c-2.189,2.19-2.189,5.754,0,7.944c1.061,1.062,2.473,1.646,3.972,1.646c1.5,0,2.911-0.584,3.974-1.646
            C20.548,8.897,20.548,5.333,18.357,3.143z M14.385,12.104c-2.754,0-4.988-2.233-4.988-4.988c0-2.754,2.234-4.989,4.988-4.989
            c2.756,0,4.988,2.234,4.988,4.989C19.373,9.869,17.141,12.104,14.385,12.104z"/>
    </symbol>
    <symbol id="notifyTwitterFeedsOn" viewBox="0 0 20 20">
      <path d="M2.105,13.271c0,0.268-0.219,0.484-0.483,0.484l0,0c-0.269,0-0.488-0.217-0.488-0.484V6.735
            c0-0.268,0.22-0.486,0.488-0.486l0,0c0.265,0,0.483,0.219,0.483,0.486V13.271z"/>
      <path d="M11.27,17.906c0,0.274-0.215,0.499-0.486,0.499l0,0c-0.265,0-0.483-0.225-0.483-0.499V2.001
            c0-0.278,0.219-0.501,0.483-0.501l0,0c0.271,0,0.486,0.223,0.486,0.501V17.906z"/>
      <path d="M5.931,13.192c0,0.27-0.215,0.487-0.482,0.487l0,0c-0.27,0-0.486-0.218-0.486-0.487v-1.471
            c0-0.27,0.217-0.487,0.486-0.487l0,0c0.268,0,0.482,0.218,0.482,0.487V13.192z"/>
      <path d="M5.931,8.283c0,0.268-0.215,0.485-0.482,0.485l0,0c-0.27,0-0.486-0.218-0.486-0.485V6.811
            c0-0.27,0.217-0.486,0.486-0.486l0,0c0.268,0,0.482,0.217,0.482,0.486V8.283z"/>
      <path d="M5.311,12.785c0.269,0,0.483,0.216,0.483,0.485l0,0c0,0.268-0.215,0.484-0.483,0.484H1.626
            c-0.269,0-0.487-0.217-0.487-0.484l0,0c0-0.27,0.219-0.485,0.487-0.485H5.311z"/>
      <path d="M5.311,6.249c0.269,0,0.483,0.219,0.483,0.486l0,0c0,0.267-0.215,0.485-0.483,0.485H1.626
            c-0.269,0-0.487-0.219-0.487-0.485l0,0c0-0.268,0.219-0.486,0.487-0.486H5.311z"/>
      <path d="M4.941,6.654c-0.14,0.131-0.106,0.395,0.076,0.592l0,0c0.18,0.197,0.44,0.251,0.582,0.123l5.542-5.082
            c0.141-0.132,0.105-0.396-0.074-0.592l0,0c-0.18-0.198-0.439-0.252-0.582-0.122L4.941,6.654z"/>
      <path d="M11.143,17.717c0.139,0.131,0.107,0.395-0.076,0.591l0,0c-0.18,0.198-0.439,0.251-0.582,0.123
            l-5.542-5.082c-0.142-0.131-0.107-0.396,0.076-0.592l0,0c0.178-0.197,0.438-0.25,0.58-0.122L11.143,17.717z"/>
      <path stroke-width="0.5" stroke-miterlimit="10" d="M14.857,4.5v0.533
            c2.045,0.728,3.508,2.675,3.508,4.968c0,2.292-1.463,4.238-3.508,4.968V15.5c2.326-0.748,4.01-2.926,4.01-5.499
            S17.184,5.25,14.857,4.5z"/>
      <path stroke-width="0.5" stroke-miterlimit="10" d="M12.668,5.672v0.59
            c1.623,0.388,2.834,1.914,2.834,3.739c0,1.827-1.211,3.353-2.834,3.74v0.588c1.926-0.396,3.379-2.184,3.379-4.328
            C16.047,7.855,14.594,6.07,12.668,5.672z"/>
    </symbol>
    <symbol id="notifyTwitterFeedsOff" viewBox="0 0 20 20">
      <path  d="M1.904,13.271c0,0.268-0.219,0.484-0.483,0.484l0,0c-0.269,0-0.488-0.217-0.488-0.484V6.735
            c0-0.268,0.22-0.486,0.488-0.486l0,0c0.265,0,0.483,0.219,0.483,0.486V13.271z"/>
      <path  d="M11.068,17.906c0,0.274-0.215,0.499-0.485,0.499l0,0c-0.265,0-0.483-0.225-0.483-0.499V2.001
            c0-0.278,0.219-0.501,0.483-0.501l0,0c0.271,0,0.485,0.223,0.485,0.501V17.906z"/>
      <path  d="M5.73,13.192c0,0.27-0.215,0.487-0.482,0.487l0,0c-0.27,0-0.486-0.218-0.486-0.487v-1.471
            c0-0.27,0.217-0.487,0.486-0.487l0,0c0.268,0,0.482,0.218,0.482,0.487V13.192z"/>
      <path  d="M5.73,8.283c0,0.268-0.215,0.485-0.482,0.485l0,0c-0.27,0-0.486-0.218-0.486-0.485V6.811
            c0-0.27,0.217-0.486,0.486-0.486l0,0c0.268,0,0.482,0.217,0.482,0.486V8.283z"/>
      <path  d="M5.11,12.785c0.269,0,0.483,0.216,0.483,0.485l0,0c0,0.268-0.215,0.484-0.483,0.484H1.426
            c-0.269,0-0.487-0.217-0.487-0.484l0,0c0-0.27,0.219-0.485,0.487-0.485H5.11z"/>
      <path  d="M5.11,6.249c0.269,0,0.483,0.219,0.483,0.486l0,0c0,0.267-0.215,0.485-0.483,0.485H1.426
            c-0.269,0-0.487-0.219-0.487-0.485l0,0c0-0.268,0.219-0.486,0.487-0.486H5.11z"/>
      <path  d="M4.74,6.654c-0.14,0.131-0.106,0.395,0.076,0.592l0,0c0.18,0.197,0.44,0.251,0.582,0.123l5.541-5.082
            c0.142-0.132,0.106-0.396-0.074-0.592l0,0c-0.18-0.198-0.438-0.252-0.581-0.122L4.74,6.654z"/>
      <path  d="M10.942,17.717c0.139,0.131,0.106,0.395-0.077,0.591l0,0c-0.18,0.198-0.438,0.251-0.581,0.123
            l-5.542-5.082c-0.142-0.131-0.107-0.396,0.076-0.592l0,0c0.178-0.197,0.438-0.25,0.58-0.122L10.942,17.717z"/>
      <path  d="M16.876,10l2.023-2.023c0.224-0.225,0.224-0.586,0-0.809c-0.224-0.224-0.586-0.224-0.81,0l-2.022,2.021
            l-2.023-2.021c-0.223-0.224-0.586-0.224-0.809-0.002c-0.225,0.225-0.225,0.586,0,0.811L15.258,10l-2.022,2.023
            c-0.225,0.223-0.225,0.584,0,0.809c0.223,0.223,0.586,0.224,0.809,0l2.023-2.023l2.022,2.023c0.224,0.224,0.586,0.224,0.81,0
            c0.224-0.225,0.224-0.586,0-0.809L16.876,10z"/>
    </symbol>
    <symbol id="im-np-common-closebtnicon" viewBox="0 0 12 12">
      <ellipse class='close_cross' fill="#FFFFFF" cx="6.089" cy="6.417" rx="4.089" ry="3.886"/>
      <path class='close_background' fill="#3C5B71" d="M5.999,0C2.686,0,0,2.687,0,6s2.686,6,5.999,6C9.313,12,12,9.313,12,6S9.313,0,5.999,0z M8.578,7.624
        L7.624,8.579c0,0-1.513-1.623-1.625-1.623c-0.11,0-1.624,1.623-1.624,1.623L3.419,7.624c0,0,1.625-1.488,1.625-1.621
        c0-0.135-1.625-1.626-1.625-1.626l0.957-0.956c0,0,1.525,1.623,1.624,1.623c0.1,0,1.625-1.623,1.625-1.623l0.954,0.956
        c0,0-1.623,1.513-1.623,1.626C6.955,6.11,8.578,7.624,8.578,7.624z"/>
    </symbol>
    
    

    <symbol id="im-np-storageGoogleDrive" viewBox="0 0 30 30">
        <polygon fill="#FFC107" points="20.001,20.625 30,20.625 20.001,1.875 9.999,1.875 	"/>
        <polygon fill="#2196F3" points="9.285,20.625 5.001,28.125 25.313,28.125 30,20.625 	"/>
        <polygon fill="#4CAF50" points="9.999,1.875 0,19.374 5.001,28.125 14.827,10.927 	"/>
        <polygon fill="#FFC107" stroke="#FFFFFF" stroke-miterlimit="10" points="19.668,20.25 29,20.25 19.668,2.75 10.333,2.75 	"/>
        <polygon fill="#2196F3" stroke="#FFFFFF" stroke-miterlimit="10" points="9.666,20.25 5.667,27.25 24.625,27.25 29,20.25 	"/>
        <polygon fill="#4CAF50" stroke="#FFFFFF" stroke-miterlimit="10" points="10.333,2.75 1,19.082 5.667,27.25 14.839,11.198 	"/>
    </symbol>

    <symbol id="im-np-storageDropBoxDrive" viewBox="0 0 20 20">
        <polygon fill="#3C8ECC" stroke="#FFFFFF" stroke-width="0.3" stroke-miterlimit="10" points="0.939,10.695 6.737,14.097 10,11.042 
		4.376,7.57 	"/>
        <polygon fill="#3C8ECC" stroke="#FFFFFF" stroke-width="0.3" stroke-miterlimit="10" points="6.182,1.321 0.28,4.446 4.376,7.57 
            10.348,4.099 	"/>
        <polygon fill="#3C8ECC" stroke="#FFFFFF" stroke-width="0.3" stroke-miterlimit="10" points="10,11.734 6.737,14.79 4.099,13.264 
            4.099,14.825 10,18.679 15.901,14.859 15.901,13.055 13.366,14.651 	"/>
        <polygon fill="#3C8ECC" stroke="#FFFFFF" stroke-width="0.3" stroke-miterlimit="10" points="10,11.042 13.366,13.958 
            19.06,10.347 15.659,7.431 	"/>
        <polygon fill="#3C8ECC" stroke="#FFFFFF" stroke-width="0.3" stroke-miterlimit="10" points="19.721,4.446 14.512,1.321 
            10.348,4.099 15.659,7.431 	"/>
    </symbol>

    <symbol id="im-np-storagePCloudDrive" viewBox="0 0 20 20">
        <path fill="#14B8BA" d="M17.157,12.026c-0.009,0.054,0.126-0.031,0.2-0.073c0.533-0.295,0.969-0.818,1.072-1.543
            c1.128,0.517,2.001,2.261,1.345,3.906c-0.38,0.949-1.261,1.75-2.381,1.998c-0.613,0.137-1.388,0.073-2.125,0.073
            c-2.172,0-4.345,0-6.559,0c-1.464,0-2.956,0.09-4.341-0.019c-1.298-0.101-2.278-0.661-2.998-1.381
            c-0.725-0.726-1.29-1.741-1.362-2.997c-0.08-1.375,0.425-2.511,1.09-3.288C1.78,7.906,2.625,7.346,3.859,7.104
            c-0.472,1.182-0.49,3.023-0.036,4.232c-0.456-2.031,0.17-3.928,1.036-5.123c0.905-1.249,2.195-2.207,3.942-2.525
            c2.097-0.382,3.859,0.284,5.05,1.199c1.236,0.95,2.109,2.22,2.397,4.069c0.138-0.701-0.098-1.342-0.308-1.817
            c1.371,0.281,2.415,1.327,2.307,2.943c-0.059,0.879-0.532,1.495-1.072,1.943C17.17,12.026,17.164,12.026,17.157,12.026z"/>
        <path fill="#FFFFFF" d="M15.277,9.886c0,2.916-2.364,5.28-5.28,5.28s-5.28-2.364-5.28-5.28c0-2.916,2.364-5.28,5.28-5.28
            S15.277,6.97,15.277,9.886z M9.997,5.177c-2.601,0-4.709,2.108-4.709,4.709c0,2.6,2.108,4.709,4.709,4.709s4.71-2.109,4.71-4.709
            C14.707,7.286,12.598,5.177,9.997,5.177z"/>
        <path id="P_1_" fill="#FFFFFF" d="M10.96,7.209c0.775,0,1.689,0.865,1.689,1.934c0,1.069-0.906,1.935-1.683,1.935H9.172v1.336
            c0,0.338-0.279,0.611-0.617,0.611s-0.617-0.273-0.617-0.611v-1.325l0,0V8.031c0-0.449,0.388-0.828,0.836-0.828h2.179 M11.425,9.164
            c0-0.394-0.324-0.711-0.718-0.711h0.004H9.172v1.422h1.539h-0.004C11.101,9.875,11.425,9.558,11.425,9.164z"/>
    </symbol>

    <symbol id="im-np-storageCloudHelpIcon" viewBox="0 0 20 20">
        <path fill="#31B4F5" d="M15.968,4.601c-0.204-1.211-0.804-2.316-1.719-3.154C13.229,0.514,11.907,0,10.525,0
            C9.462,0,8.424,0.306,7.534,0.881c-0.74,0.479-1.356,1.125-1.79,1.886c-0.188-0.035-0.385-0.055-0.58-0.055
            c-1.665,0-3.021,1.355-3.021,3.02c0,0.217,0.023,0.424,0.063,0.627c-1.077,0.783-1.73,2.045-1.73,3.389
            c0,1.086,0.403,2.139,1.14,2.975c0.756,0.854,1.755,1.357,2.819,1.418c0.013,0,0.02,0,0.031,0H4.331
            c0.155-0.311,0.345-0.603,0.588-0.846l0.215-0.214h-0.65c-1.603-0.099-2.95-1.622-2.95-3.338c0-1.107,0.595-2.143,1.556-2.702
            c0.223-0.13,0.316-0.4,0.229-0.643C3.24,6.186,3.2,5.963,3.2,5.725c0-1.081,0.883-1.963,1.964-1.963
            c0.231,0,0.458,0.039,0.67,0.117c0.258,0.095,0.545-0.022,0.661-0.271C7.229,2.053,8.811,1.05,10.529,1.05
            c2.313,0,4.22,1.73,4.438,4.026c0.024,0.24,0.204,0.432,0.439,0.471c1.743,0.298,3.06,1.906,3.06,3.744
            c0,1.591-1.021,3.012-2.429,3.557l0.284,1.029c0.725-0.259,1.385-0.699,1.926-1.295c0.826-0.91,1.275-2.076,1.275-3.291
            C19.521,7.095,18.021,5.14,15.968,4.601z"/>
		<path fill="#FFFFFF" d="M14.782,13.123l-5.215,5.215c-0.979,0.979-2.798,1.115-3.638,0.273c-0.842-0.842-0.706-2.659,0.272-3.639
			l5.215-5.215l0.652-0.652c0.65-0.65,1.863-0.742,2.426-0.182c0.561,0.561,0.469,1.771-0.184,2.426L13.658,12l-3.909,3.91
			l-0.652,0.652c-0.324,0.326-0.932,0.371-1.212,0.092c-0.281-0.281-0.234-0.889,0.092-1.213l4.563-4.563l-0.562-0.561L7.416,14.88
			c-0.653,0.651-0.744,1.863-0.185,2.425c0.562,0.563,1.773,0.471,2.426-0.183l0.651-0.653l4.563-4.563
			c0.979-0.979,1.113-2.796,0.273-3.636c-0.842-0.842-2.658-0.705-3.638,0.271l-0.653,0.653L5.64,14.409
			c-1.305,1.304-1.486,3.729-0.366,4.85c1.122,1.121,3.547,0.938,4.851-0.364l5.215-5.215L14.782,13.123z"/>
    </symbol>
    <symbol id="authenticationEmailIcon">
        <path class="namePlate_icon" fill="#64B9BC" d="M16.701,6.154c0.422-0.42,0.422-1.109,0-1.53s-1.109-0.42-1.531,0c-0.42,0.421-0.42,1.11,0.002,1.53
          C15.594,6.576,16.279,6.576,16.701,6.154L16.701,6.154z M15.553,5.007c0.211-0.211,0.557-0.211,0.768-0.001
          c0.209,0.21,0.209,0.556-0.002,0.765c-0.209,0.211-0.555,0.211-0.764,0C15.344,5.562,15.344,5.216,15.553,5.007L15.553,5.007z
          M15.553,5.007"/>
        <path class="namePlate_icon" fill="#64B9BC" d="M18.203,5.82c-0.143,0.047-0.23,0.191-0.182,0.334C18.07,6.298,18.09,6.47,18.08,6.671
          c0,0.459-0.143,0.889-0.439,1.243c-0.098,0.114-0.076,0.286,0.037,0.382c0.105,0.087,0.266,0.077,0.363-0.019l0.02-0.02
          c0.363-0.458,0.553-0.994,0.553-1.587c0-0.249-0.027-0.47-0.094-0.67C18.51,5.858,18.357,5.781,18.203,5.82L18.203,5.82z
          M18.203,5.82"/>
        <path class="namePlate_icon" fill="#64B9BC" d="M13.086,3.648c-1.578,1.578-1.578,4.161,0,5.74c0.365,0.363,0.775,0.641,1.225,0.842l0.008,5.327
          c0,0.288,0.117,0.574,0.307,0.765l1.121,1.12c0.104,0.105,0.277,0.105,0.383,0l1.119-1.12c0.209-0.211,0.316-0.487,0.305-0.765
          v-1.014c0-0.058-0.02-0.097-0.039-0.133l-0.322-0.537l0.322-0.536c0.029-0.047,0.039-0.095,0.039-0.133V12.67
          c0-0.06-0.01-0.106-0.047-0.146l-0.172-0.248l0.172-0.25c0.027-0.047,0.037-0.096,0.047-0.143v-1.607
          c0.461-0.191,0.891-0.488,1.264-0.86c1.578-1.579,1.578-4.161,0-5.739C17.238,2.099,14.664,2.07,13.086,3.648L13.086,3.648z
          M17.018,11.769l-0.219,0.336c-0.059,0.096-0.059,0.209,0,0.305l0.219,0.317v0.381l-0.373,0.623c-0.049,0.086-0.059,0.191,0,0.286
          l0.373,0.622v0.956c0.01,0.183-0.076,0.308-0.143,0.374l-0.916,0.918l-0.93-0.928c-0.098-0.096-0.145-0.239-0.154-0.383
          l-0.027-5.156c0.707,0.19,1.463,0.202,2.17,0.01V11.769z M18.443,9.005c-1.006,1.004-2.457,1.271-3.711,0.803
          c-0.039-0.02-0.068-0.028-0.107-0.049c-0.42-0.171-0.813-0.43-1.146-0.764c-1.367-1.368-1.367-3.605,0-4.975
          c1.369-1.367,3.605-1.367,4.975,0C19.811,5.398,19.811,7.636,18.443,9.005L18.443,9.005z M18.443,9.005"/>
        <path class="namePlate_icon" fill="#64B9BC" d="M13.881,17.277l-0.002-1.081H2.147l5.43-6.206l2.034,1.743c0.116,0.102,0.262,0.152,0.406,0.152
          c0.146,0,0.291-0.051,0.407-0.152l2.035-1.743c0,0,0.314-0.093-0.146-0.556c-0.176-0.178-0.318-0.375-0.463-0.57l-1.833,1.571
          L2.27,3.794h8.941c0.193-0.467,0.477-0.899,0.813-1.302H2.505C2.484,2.493,0.035,2.479,0,2.479v14.463l0.002,0.58h13.926
          C13.914,17.438,13.881,17.36,13.881,17.277z M1.327,4.633l5.299,4.542L1.301,15.26L1.327,4.633z"/>
    </symbol>
    <symbol id="emailIconGmail">
      <path class="im-np-" fill-rule="evenodd" clip-rule="evenodd" fill="#64B9BC" d="M10.158,1.053C5.106,1.053,1.106,5,1.106,10
    c0,4.999,4,8.946,9.052,8.946c4.737,0,7.948-2.632,8.631-7.104l0,0c0.105-0.579,0.158-1.211,0.158-1.842
    c0-0.526-0.053-1.105-0.105-1.579h-8.263v2.632H16l-0.157,0.631c-0.633,2.789-2.896,4.631-5.737,4.631
    c-3.421,0-6.369-2.894-6.369-6.314s2.948-6.316,6.421-6.316c1.473,0,2.737,0.422,3.684,1.211l2.053-2.053
    C14.421,1.685,12.526,1.053,10.158,1.053L10.158,1.053z M10.158,20C4.474,20,0.053,15.631,0.053,10c0-5.632,4.42-10,10.104-10
    C13,0,15.369,0.842,17,2.474l0.421,0.368l-3.526,3.526L13.526,6c-0.843-0.842-2-1.264-3.369-1.264C7.316,4.736,4.79,7.21,4.79,10
    c0,2.788,2.526,5.263,5.368,5.263c2.159,0,3.79-1.211,4.527-3.158H9.526V7.368h10.21l0.053,0.421
    C19.895,8.421,19.947,9.21,19.947,10c0,0.684-0.053,1.368-0.158,1.999C19.105,16.946,15.369,20,10.158,20z"/>
    </symbol>
    <symbol id="im-np-sm-accountInfoIcon">
      <path d="M9.998,0C8.333,0,6.974,1.357,6.974,3.025c0,1.667,1.359,3.025,3.024,3.025
				c1.67,0,3.028-1.358,3.028-3.025C13.026,1.357,11.668,0,9.998,0z M9.998,4.907c-1.035,0-1.88-0.845-1.88-1.882
				c0-1.039,0.845-1.883,1.88-1.883c1.042,0,1.885,0.844,1.885,1.883C11.883,4.062,11.04,4.907,9.998,4.907z"/>
      <path d="M13.354,16.959h-0.65V7.586c0-0.313-0.257-0.569-0.572-0.569H6.645c-0.313,0-0.569,0.257-0.569,0.569v1.9
				c0,0.314,0.257,0.571,0.569,0.571h0.653v6.901H6.645c-0.313,0-0.569,0.254-0.569,0.571v1.897C6.075,19.743,6.332,20,6.645,20
				h6.709c0.317,0,0.571-0.257,0.571-0.572V17.53C13.925,17.213,13.671,16.959,13.354,16.959z M12.784,18.858H7.22v-0.756h0.65
				c0.314,0,0.571-0.257,0.571-0.572V9.486c0-0.316-0.257-0.572-0.571-0.572H7.22V8.16h4.342v9.37c0,0.315,0.254,0.572,0.569,0.572
				h0.653V18.858z"/>
    </symbol>
    <symbol id="im-da-common-drive">
      <path fill="#4D297B" d="M15.968,4.6c-0.204-1.211-0.804-2.316-1.719-3.154C13.229,0.514,11.907,0,10.526,0
		C9.462,0,8.424,0.306,7.534,0.881c-0.74,0.479-1.356,1.125-1.79,1.885c-0.188-0.035-0.385-0.054-0.58-0.054
		c-1.665,0-3.021,1.355-3.021,3.02c0,0.217,0.023,0.423,0.063,0.627c-1.077,0.783-1.73,2.044-1.73,3.388
		c0,1.086,0.403,2.139,1.14,2.974c0.756,0.854,1.755,1.358,2.819,1.418c0.013,0,0.02,0,0.031,0H4.331
		c0.155-0.31,0.345-0.602,0.588-0.845l0.215-0.214h-0.65c-1.603-0.099-2.95-1.622-2.95-3.338c0-1.107,0.595-2.143,1.556-2.702
		c0.223-0.13,0.316-0.4,0.229-0.643C3.24,6.186,3.2,5.963,3.2,5.725c0-1.081,0.883-1.963,1.964-1.963
		c0.231,0,0.458,0.039,0.67,0.117c0.258,0.094,0.545-0.023,0.661-0.27c0.734-1.555,2.316-2.558,4.035-2.558
		c2.312,0,4.219,1.73,4.438,4.027c0.024,0.239,0.204,0.431,0.439,0.47c1.744,0.298,3.06,1.907,3.06,3.745
		c0,1.59-1.022,3.011-2.429,3.556l0.284,1.029c0.725-0.259,1.385-0.699,1.926-1.295c0.826-0.91,1.276-2.076,1.276-3.291
		C19.521,7.095,18.021,5.14,15.968,4.6z"/>
    <path fill="#997BF5" d="M14.782,13.123l-5.215,5.215c-0.979,0.978-2.798,1.115-3.638,0.274c-0.842-0.843-0.706-2.66,0.272-3.639
			l5.215-5.214l0.652-0.652c0.651-0.651,1.864-0.742,2.426-0.182c0.561,0.56,0.469,1.772-0.184,2.425l-0.652,0.651l-3.909,3.91
			l-0.652,0.653c-0.324,0.325-0.932,0.37-1.212,0.091c-0.281-0.281-0.234-0.888,0.092-1.213l4.563-4.563l-0.561-0.561l-4.563,4.563
			c-0.653,0.651-0.744,1.863-0.185,2.425c0.562,0.562,1.773,0.471,2.426-0.183l0.651-0.653l4.563-4.563
			c0.979-0.977,1.114-2.795,0.274-3.636c-0.842-0.841-2.659-0.704-3.638,0.272l-0.653,0.653l-5.214,5.215
			c-1.305,1.304-1.486,3.729-0.366,4.85c1.122,1.121,3.547,0.938,4.851-0.365l5.215-5.215L14.782,13.123z"/>
    </symbol>
    <symbol id="im-np-sm-importOldMailIcon">
      <path d="M18.695,13.813l0.004,1.439l-0.775-0.885c-0.361,0.229-0.744,0.426-1.146,0.586l1.078,1.232H2.143
		l5.16-5.896C7.127,9.672,7.027,9.023,7.027,8.35c0-0.15,0.014-0.296,0.022-0.443L2.266,3.806h6.403
		c0.411-0.495,0.89-0.93,1.419-1.298H2.5c-0.021,0-2.465-0.015-2.5-0.015v14.438l0.001,0.576h19.972
		c0-0.012,0.002-0.787,0.027-0.811v-4.313C19.631,12.917,19.193,13.399,18.695,13.813z M1.322,4.645l5.291,4.533l-5.314,6.073
		L1.322,4.645z"/>
	    <path d="M15.99,10.226c-0.121,0.123-0.305,0.123-0.426,0l-1.617-1.617c0.015,0.015-0.092-0.061-0.092-0.213v-3.18
		c0-0.167,0.137-0.305,0.305-0.305s0.306,0.137,0.306,0.305v3.058l1.524,1.525C16.113,9.921,16.113,10.104,15.99,10.226z"/>
	    <path d="M14.143,2.493c-3.235,0-5.857,2.622-5.857,5.857c0,3.234,2.622,5.856,5.857,5.856
		c3.234,0,5.857-2.622,5.857-5.856C20,5.115,17.377,2.493,14.143,2.493z M14.143,13.063c-2.605,0-4.715-2.108-4.715-4.713
		s2.109-4.715,4.715-4.715s4.715,2.109,4.715,4.715S16.748,13.063,14.143,13.063z"/>
      <path d="M14.143,12.353c-0.168,0-0.306,0.137-0.306,0.305v0.402h0.61v-0.402
			C14.447,12.489,14.31,12.353,14.143,12.353z"/>
      <path d="M14.143,4.356c0.168,0,0.305-0.137,0.305-0.305V3.65h-0.61v0.401C13.837,4.219,13.975,4.356,14.143,4.356z
			"/>
      <path d="M18.141,8.354c0,0.168,0.139,0.305,0.305,0.305h0.402v-0.61h-0.402
			C18.279,8.049,18.141,8.187,18.141,8.354z"/>
      <path d="M10.145,8.354c0-0.168-0.138-0.305-0.305-0.305H9.438v0.61H9.84C10.007,8.66,10.145,8.522,10.145,8.354z"
			/>

    </symbol>
    
  </defs>
</svg>
