<svg version="1.1" id="Layer_1" xmlns="http://www.w3.org/2000/svg" xmlns:xlink="http://www.w3.org/1999/xlink" x="0px" y="0px" width="20px" height="20px" viewBox="0 0 20 20" enable-background="new 0 0 20 20" xml:space="preserve"><rect display="none" fill="#FFB7B3" width="20" height="20"></rect><g display="none"><g display="inline"><path fill="#64B9BC" d="M11.229,5.188H1.604C0.718,5.188,0,5.907,0,6.792v6.417c0,0.887,0.718,1.604,1.604,1.604h9.626
			c0.886,0,1.604-0.718,1.604-1.604V6.792C12.833,5.907,12.115,5.188,11.229,5.188L11.229,5.188z M8.587,9.47l3.395-2.91
			c0.025,0.075,0.049,0.15,0.049,0.232v6.417c0,0.056-0.022,0.104-0.033,0.158L8.587,9.47z M11.229,5.991
			c0.052,0,0.1,0.02,0.15,0.029l-4.964,4.255L1.453,6.021c0.05-0.01,0.097-0.029,0.15-0.029H11.229z M0.833,13.366
			c-0.011-0.054-0.031-0.102-0.031-0.157V6.792c0-0.082,0.024-0.157,0.047-0.232l3.395,2.908L0.833,13.366z M1.604,14.012
			c-0.081,0-0.155-0.023-0.229-0.048l3.477-3.975l1.304,1.117c0.074,0.064,0.168,0.098,0.261,0.098c0.093,0,0.186-0.033,0.261-0.098
			l1.304-1.117l3.475,3.975c-0.074,0.024-0.145,0.048-0.227,0.048H1.604z M1.604,14.012"></path></g><g display="inline"><path fill="#64B9BC" d="M16.596,3.286l-2.909,3.19c-0.072,0.088-0.084,0.186-0.04,0.29c0.044,0.106,0.123,0.158,0.239,0.158h1.861
			v3.386c0,0.079,0.024,0.143,0.074,0.191c0.052,0.051,0.114,0.076,0.191,0.076h1.596c0.078,0,0.143-0.025,0.191-0.076
			c0.05-0.049,0.075-0.112,0.075-0.191V6.924h1.861c0.11,0,0.192-0.052,0.241-0.158c0.044-0.104,0.027-0.202-0.049-0.29l-2.943-3.19
			c-0.056-0.056-0.121-0.083-0.2-0.083C16.713,3.203,16.651,3.23,16.596,3.286z"></path></g></g><g><path class="namePlate_icon" fill="#64B9BC" d="M18.054,2.953H1.945C0.87,2.953,0,3.915,0,5.103v9.795c0,1.188,0.87,2.149,1.945,2.149h16.108
		c1.075,0,1.946-0.962,1.946-2.149V5.103C20,3.915,19.129,2.953,18.054,2.953z M19.367,14.489c0,1.089-0.797,1.971-1.783,1.971
		H2.414c-0.984,0-1.783-0.882-1.783-1.971V5.512c0-1.09,0.799-1.971,1.783-1.971h15.17c0.986,0,1.783,0.881,1.783,1.971V14.489z"></path><polygon class="namePlate_icon_stroke" fill="none" stroke="#64B9BC" stroke-width="0.8" stroke-miterlimit="10" points="18.213,9.65 15.415,9.65 15.415,5.455
		13.065,5.455 13.065,9.65 10.268,9.65 14.24,14.546 	"></polygon><g><path class="namePlate_icon" fill="#64B9BC" d="M6.604,5.075c-1.411,0-2.491,1.079-2.491,2.488c0,1.409,1.08,2.487,2.491,2.487
			c1.407,0,2.486-1.078,2.486-2.487C9.091,6.154,8.012,5.075,6.604,5.075z M6.604,9.527c-1.114,0-1.966-0.853-1.966-1.964
			c0-1.112,0.852-1.965,1.966-1.965c1.112,0,1.961,0.853,1.961,1.965C8.565,8.675,7.717,9.527,6.604,9.527z"></path><path class="namePlate_icon" fill="#64B9BC" d="M11.579,14.903h-0.003v-1.388c0,0-0.938-2.192-3.877-2.648c0-0.001,0-0.004,0-0.004
			c-0.052-0.006-0.106-0.012-0.16-0.02c-0.104-0.012-0.207-0.027-0.314-0.037c-0.198-0.018-0.404-0.031-0.62-0.031
			c-3.815,0-4.977,2.738-4.977,2.738v1.392l0,0v0.02h0.383c-0.02,0-0.034-0.001-0.051-0.001h0.09c-0.013,0-0.026,0.001-0.039,0.001
			h9.565v-0.001h0.003V14.903z M2.944,12.675c0.534-0.479,1.427-1.074,2.67-1.295c0.138-0.023,0.281-0.047,0.429-0.06
			c0.049-0.009,0.104-0.009,0.155-0.011c0.132-0.01,0.262-0.02,0.405-0.02c0.213,0,0.418,0.012,0.614,0.033
			c0.042,0.006,0.083,0.013,0.118,0.018c1.38,0.18,2.354,0.823,2.927,1.339c0.411,0.37,0.954,1.278,0.824,1.734
			c0-0.01-1.353-0.014-3-0.014c-2.606-0.006-5.968-0.006-5.968,0.012C1.989,13.954,2.529,13.049,2.944,12.675z"></path></g></g></svg>