<svg version="1.1" id="Layer_1" xmlns="http://www.w3.org/2000/svg" xmlns:xlink="http://www.w3.org/1999/xlink" x="0px" y="0px" width="20px" height="20px" viewBox="0 0 20 20" enable-background="new 0 0 20 20" xml:space="preserve"><rect display="none" fill="#7BFFFF" width="20" height="20"></rect><g display="none"><g display="inline"><path fill="#FFFFFF" d="M16.701,6.154c0.422-0.42,0.422-1.109,0-1.53s-1.109-0.42-1.531,0c-0.42,0.421-0.42,1.11,0.002,1.53
			C15.594,6.576,16.279,6.576,16.701,6.154L16.701,6.154z M15.553,5.007c0.211-0.211,0.557-0.211,0.768-0.001
			c0.209,0.21,0.209,0.556-0.002,0.765c-0.209,0.211-0.555,0.211-0.764,0C15.344,5.562,15.344,5.216,15.553,5.007L15.553,5.007z
			 M15.553,5.007"></path><path fill="#FFFFFF" d="M18.203,5.82c-0.143,0.047-0.23,0.191-0.182,0.334C18.07,6.298,18.09,6.47,18.08,6.671
			c0,0.459-0.143,0.889-0.439,1.243c-0.098,0.114-0.076,0.286,0.037,0.382c0.105,0.087,0.266,0.077,0.363-0.019l0.02-0.02
			c0.363-0.458,0.553-0.994,0.553-1.587c0-0.249-0.027-0.47-0.094-0.67C18.51,5.858,18.357,5.781,18.203,5.82L18.203,5.82z
			 M18.203,5.82"></path><path fill="#FFFFFF" d="M13.086,3.648c-1.578,1.578-1.578,4.161,0,5.74c0.365,0.363,0.775,0.641,1.225,0.842l0.008,5.327
			c0,0.288,0.117,0.574,0.307,0.765l1.121,1.12c0.104,0.105,0.277,0.105,0.383,0l1.119-1.12c0.209-0.211,0.316-0.487,0.305-0.765
			v-1.014c0-0.058-0.02-0.097-0.039-0.133l-0.322-0.537l0.322-0.536c0.029-0.047,0.039-0.095,0.039-0.133V12.67
			c0-0.06-0.01-0.106-0.047-0.146l-0.172-0.248l0.172-0.25c0.027-0.047,0.037-0.096,0.047-0.143v-1.607
			c0.461-0.191,0.891-0.488,1.264-0.86c1.578-1.579,1.578-4.161,0-5.739C17.238,2.099,14.664,2.07,13.086,3.648L13.086,3.648z
			 M17.018,11.769l-0.219,0.336c-0.059,0.096-0.059,0.209,0,0.305l0.219,0.317v0.381l-0.373,0.623c-0.049,0.086-0.059,0.191,0,0.286
			l0.373,0.622v0.956c0.01,0.183-0.076,0.308-0.143,0.374l-0.916,0.918l-0.93-0.928c-0.098-0.096-0.145-0.239-0.154-0.383
			l-0.027-5.156c0.707,0.19,1.463,0.202,2.17,0.01V11.769z M18.443,9.005c-1.006,1.004-2.457,1.271-3.711,0.803
			c-0.039-0.02-0.068-0.028-0.107-0.049c-0.42-0.171-0.813-0.43-1.146-0.764c-1.367-1.368-1.367-3.605,0-4.975
			c1.369-1.367,3.605-1.367,4.975,0C19.811,5.398,19.811,7.636,18.443,9.005L18.443,9.005z M18.443,9.005"></path></g><g display="inline"><path fill="#FFFFFF" d="M13.881,17.277l-0.002-1.081H2.147l5.43-6.206l2.034,1.743c0.116,0.102,0.262,0.152,0.406,0.152
			c0.146,0,0.291-0.051,0.407-0.152l2.035-1.743c0,0,0.314-0.093-0.146-0.556c-0.176-0.178-0.318-0.375-0.463-0.57l-1.833,1.571
			L2.27,3.794h8.941c0.193-0.467,0.477-0.899,0.813-1.302H2.505C2.484,2.493,0.035,2.479,0,2.479v14.463l0.002,0.58h13.926
			C13.914,17.438,13.881,17.36,13.881,17.277z M1.327,4.633l5.299,4.542L1.301,15.26L1.327,4.633z"></path></g></g><g display="none"><path display="inline" fill="#FFBA00" stroke="#FFBA00" stroke-width="0.1" stroke-miterlimit="10" d="M17.5,2.5h-15
		C1.12,2.5,0,3.62,0,5v10c0,1.38,1.12,2.5,2.5,2.5h15c1.38,0,2.5-1.12,2.5-2.5V5C20,3.62,18.88,2.5,17.5,2.5z M18.75,15
		c0,0.087-0.033,0.163-0.05,0.245l-3.299-3.77c-0.125,0.455-0.303,0.888-0.531,1.289l2.986,3.413
		c-0.115,0.036-0.229,0.072-0.356,0.072h-15c-0.126,0-0.241-0.037-0.356-0.072l2.986-3.413c-0.229-0.402-0.407-0.835-0.531-1.291
		L1.3,15.244C1.282,15.162,1.25,15.087,1.25,15V5c0-0.13,0.037-0.246,0.073-0.363l3.572,3.061c0.176-0.389,0.395-0.753,0.65-1.088
		l-3.28-2.812C2.344,3.781,2.417,3.75,2.5,3.75h15c0.083,0,0.156,0.031,0.234,0.048l-3.28,2.812c0.256,0.335,0.475,0.699,0.65,1.088
		l3.572-3.061C18.714,4.754,18.75,4.87,18.75,5V15z"></path><g display="inline"><path fill="#FFBA00" stroke="#FFBA00" stroke-width="0.1" stroke-miterlimit="10" d="M10.94,11.089h-0.026
			c-0.248,0.813-0.737,1.219-1.467,1.219c-0.468,0-0.844-0.174-1.128-0.518c-0.285-0.344-0.427-0.809-0.427-1.391
			c0-0.771,0.196-1.41,0.59-1.92c0.395-0.51,0.911-0.766,1.553-0.766c0.245,0,0.464,0.064,0.657,0.189
			c0.192,0.127,0.315,0.285,0.37,0.477h0.021c0.007-0.096,0.024-0.293,0.052-0.588h0.639c-0.16,1.877-0.24,2.834-0.24,2.867
			c0,0.707,0.203,1.059,0.608,1.059c0.368,0,0.675-0.199,0.918-0.598c0.244-0.398,0.366-0.916,0.366-1.549
			c0-0.938-0.297-1.703-0.89-2.297c-0.594-0.594-1.415-0.891-2.466-0.891c-1.012,0-1.85,0.355-2.511,1.064s-0.992,1.596-0.992,2.66
			c0,1.047,0.314,1.891,0.943,2.533s1.478,0.965,2.545,0.965c0.842,0,1.562-0.141,2.158-0.42v0.635
			c-0.59,0.252-1.327,0.377-2.21,0.377c-1.241,0-2.24-0.373-2.999-1.121c-0.759-0.75-1.138-1.729-1.138-2.939
			c0-1.248,0.397-2.281,1.194-3.104c0.796-0.822,1.813-1.232,3.05-1.232c1.159,0,2.119,0.344,2.88,1.033
			c0.76,0.689,1.14,1.586,1.14,2.695c0,0.811-0.2,1.477-0.601,1.996s-0.889,0.781-1.465,0.781
			C11.318,12.308,10.943,11.901,10.94,11.089z M10.024,8.308c-0.423,0-0.765,0.201-1.025,0.604s-0.391,0.902-0.391,1.498
			c0,0.402,0.088,0.719,0.263,0.951c0.176,0.232,0.41,0.348,0.703,0.348c0.423,0,0.758-0.211,1.005-0.631
			c0.248-0.422,0.371-0.98,0.371-1.676C10.95,8.673,10.642,8.308,10.024,8.308z"></path></g></g><g display="none"><circle display="inline" fill="#FF0000" stroke="#FFFFFF" stroke-width="0.5" stroke-miterlimit="10" cx="15.397" cy="8.679" r="4.353"></circle><g display="inline"><path fill="#FF0000" stroke="#FFFFFF" stroke-width="0.5" stroke-miterlimit="10" d="M10.14,8.659
			c0.007-1.535,0.673-2.911,1.728-3.869H1.34c-0.075,0-0.138,0.027-0.206,0.042l6.735,5.772L10.14,8.659z"></path><path fill="#FF0000" stroke="#FFFFFF" stroke-width="0.5" stroke-miterlimit="10" d="M0.314,5.563
			C0.283,5.664,0.25,5.766,0.25,5.88v8.706c0,0.074,0.027,0.141,0.043,0.213L4.92,9.51L0.314,5.563z"></path><path fill="#FF0000" stroke="#FFFFFF" stroke-width="0.5" stroke-miterlimit="10" d="M10.696,11.023L9.99,10.217l-1.768,1.518
			c-0.103,0.086-0.228,0.131-0.354,0.131c-0.127,0-0.252-0.045-0.352-0.131l-1.771-1.518L1.028,15.61
			c0.101,0.033,0.199,0.063,0.313,0.063h13.057c0.113,0,0.211-0.029,0.313-0.063l-2.248-2.569
			C11.711,12.537,11.103,11.838,10.696,11.023z"></path></g><path display="inline" fill="#FFFFFF" stroke="#FFFFFF" stroke-width="0.5" stroke-miterlimit="10" d="M17.329,10.607
		c0.14-0.142,0.14-0.37-0.003-0.512L15.911,8.68l1.415-1.417c0.143-0.142,0.143-0.37,0-0.512c-0.142-0.143-0.369-0.143-0.512,0
		l-1.416,1.416l-1.415-1.416c-0.142-0.143-0.37-0.143-0.513,0c-0.143,0.142-0.143,0.37,0,0.512l1.416,1.417l-1.419,1.415
		c-0.143,0.142-0.143,0.37,0,0.512c0.071,0.071,0.163,0.106,0.258,0.106c0.094,0,0.188-0.035,0.258-0.106l1.415-1.415l1.416,1.415
		c0.07,0.071,0.163,0.106,0.258,0.106S17.259,10.678,17.329,10.607L17.329,10.607z M17.329,10.607"></path></g><path display="none" fill-rule="evenodd" clip-rule="evenodd" fill="#64B9BC" d="M10.158,1.053C5.106,1.053,1.106,5,1.106,10
	c0,4.999,4,8.946,9.052,8.946c4.737,0,7.948-2.632,8.631-7.104l0,0c0.105-0.579,0.158-1.211,0.158-1.842
	c0-0.526-0.053-1.105-0.105-1.579h-8.263v2.632H16l-0.157,0.631c-0.633,2.789-2.896,4.631-5.737,4.631
	c-3.421,0-6.369-2.894-6.369-6.314s2.948-6.316,6.421-6.316c1.473,0,2.737,0.422,3.684,1.211l2.053-2.053
	C14.421,1.685,12.526,1.053,10.158,1.053L10.158,1.053z M10.158,20C4.474,20,0.053,15.631,0.053,10c0-5.632,4.42-10,10.104-10
	C13,0,15.369,0.842,17,2.474l0.421,0.368l-3.526,3.526L13.526,6c-0.843-0.842-2-1.264-3.369-1.264C7.316,4.736,4.79,7.21,4.79,10
	c0,2.788,2.526,5.263,5.368,5.263c2.159,0,3.79-1.211,4.527-3.158H9.526V7.368h10.21l0.053,0.421
	C19.895,8.421,19.947,9.21,19.947,10c0,0.684-0.053,1.368-0.158,1.999C19.105,16.946,15.369,20,10.158,20z"></path><g display="none"><g display="inline"><path fill="#997BF5" d="M16.267,7.408c-0.215-1.271-0.844-2.431-1.806-3.311c-1.069-0.979-2.46-1.518-3.907-1.518
			c-1.119,0-2.209,0.321-3.143,0.925C6.634,4.006,5.988,4.685,5.532,5.483C5.334,5.446,5.129,5.425,4.924,5.425
			c-1.748,0-3.171,1.422-3.171,3.17c0,0.227,0.024,0.444,0.065,0.658C0.687,10.076,0,11.4,0,12.812c0,1.139,0.424,2.245,1.197,3.121
			c0.793,0.896,1.842,1.428,2.961,1.488c0.013,0,0.021,0,0.033,0h8.688c0.308,0,0.556-0.246,0.556-0.555s-0.248-0.555-0.556-0.555
			H4.207c-1.682-0.103-3.097-1.703-3.097-3.504c0-1.164,0.625-2.25,1.634-2.838c0.234-0.136,0.332-0.42,0.242-0.675
			C2.903,9.073,2.863,8.838,2.863,8.588c0-1.135,0.925-2.061,2.061-2.061c0.242,0,0.48,0.041,0.703,0.124
			C5.898,6.75,6.198,6.626,6.321,6.367c0.77-1.632,2.431-2.686,4.236-2.686c2.427,0,4.43,1.818,4.659,4.228
			c0.025,0.25,0.215,0.452,0.461,0.494c1.83,0.313,3.213,2.003,3.213,3.931c0,2.044-1.608,3.821-3.591,3.974h-3.031
			c-0.309,0-0.555,0.246-0.555,0.555s0.246,0.555,0.555,0.555h3.052c0.012,0,0.024,0,0.041,0c1.255-0.09,2.427-0.666,3.299-1.628
			c0.867-0.954,1.34-2.18,1.34-3.455C19.996,10.027,18.422,7.975,16.267,7.408z"></path></g></g><g><path class="namePlate_icon" fill="#64B9BC" d="M18.695,13.813l0.004,1.439l-0.775-0.885c-0.361,0.229-0.744,0.426-1.146,0.586l1.078,1.232H2.143
		l5.16-5.896C7.127,9.672,7.027,9.023,7.027,8.35c0-0.15,0.014-0.296,0.022-0.443L2.266,3.806h6.403
		c0.411-0.495,0.89-0.93,1.419-1.298H2.5c-0.021,0-2.465-0.015-2.5-0.015v14.438l0.001,0.576h19.972
		c0-0.012,0.002-0.787,0.027-0.811v-4.313C19.631,12.917,19.193,13.399,18.695,13.813z M1.322,4.645l5.291,4.533l-5.314,6.073
		L1.322,4.645z"></path><path class="namePlate_icon" fill="#64B9BC" d="M15.99,10.226c-0.121,0.123-0.305,0.123-0.426,0l-1.617-1.617c0.015,0.015-0.092-0.061-0.092-0.213v-3.18
		c0-0.167,0.137-0.305,0.305-0.305s0.306,0.137,0.306,0.305v3.058l1.524,1.525C16.113,9.921,16.113,10.104,15.99,10.226z"></path><path class="namePlate_icon" fill="#64B9BC" d="M14.143,2.493c-3.235,0-5.857,2.622-5.857,5.857c0,3.234,2.622,5.856,5.857,5.856
		c3.234,0,5.857-2.622,5.857-5.856C20,5.115,17.377,2.493,14.143,2.493z M14.143,13.063c-2.605,0-4.715-2.108-4.715-4.713
		s2.109-4.715,4.715-4.715s4.715,2.109,4.715,4.715S16.748,13.063,14.143,13.063z"></path><g><path class="namePlate_icon" fill="#64B9BC" d="M14.143,12.353c-0.168,0-0.306,0.137-0.306,0.305v0.402h0.61v-0.402
			C14.447,12.489,14.31,12.353,14.143,12.353z"></path><path class="namePlate_icon" fill="#64B9BC" d="M14.143,4.356c0.168,0,0.305-0.137,0.305-0.305V3.65h-0.61v0.401C13.837,4.219,13.975,4.356,14.143,4.356z
			"></path></g><g><path class="namePlate_icon" fill="#64B9BC" d="M18.141,8.354c0,0.168,0.139,0.305,0.305,0.305h0.402v-0.61h-0.402
			C18.279,8.049,18.141,8.187,18.141,8.354z"></path><path class="namePlate_icon" fill="#64B9BC" d="M10.145,8.354c0-0.168-0.138-0.305-0.305-0.305H9.438v0.61H9.84C10.007,8.66,10.145,8.522,10.145,8.354z"></path></g></g></svg>