<svg version="1.1" id="Layer_1" xmlns="http://www.w3.org/2000/svg" xmlns:xlink="http://www.w3.org/1999/xlink" x="0px" y="0px" width="20px" height="20px" viewBox="0 0 20 20" enable-background="new 0 0 20 20" xml:space="preserve"><g><g><path class="lunchIconProps" fill="none" stroke-width="1.5" stroke-miterlimit="10" d="M13.077,18.557c0,0.322,0.687,0.585,1.009,0.585
			h0.531c0.323,0,1.01-0.263,1.01-0.586l-0.3-8.504l-1.949-0.051L13.077,18.557z"></path><path class="lunchIconProps" fill="none" stroke-width="1.5" stroke-miterlimit="10" d="M15.225,9.11
			c1.424-0.384,2.245-1.755,2.245-3.392c0-1.935-1.143-4.97-3.078-4.969c-1.934,0-3.076,3.034-3.076,4.969
			c0,1.605,0.79,2.956,2.164,3.369l-0.102,0.913l1.949,0.051L15.225,9.11z"></path></g><path class="lunchIconProps" fill="none" stroke-width="1.5" stroke-miterlimit="10" d="M4.709,9.161l-0.405,9.504
		c0,0.322,0.688,0.585,1.01,0.585h0.532c0.241,0,0.687-0.146,0.896-0.354c0.07-0.071,0.113-0.149,0.114-0.23L6.449,9.104
		c0.315-0.107,0.595-0.271,0.838-0.474C8.019,8.021,8.424,7.03,8.424,5.906c0-3.81-0.077-4.57-1.396-4.719L6.935,5.589
		c0,0.102-0.04,0.203-0.112,0.274C6.759,5.927,6.676,5.962,6.589,5.962h-0.12c-0.088,0-0.172-0.036-0.235-0.099
		c-0.07-0.071-0.11-0.173-0.111-0.277L5.769,1.15c-0.096,0-0.188,0.001-0.291,0.001c-0.176,0-0.338-0.001-0.493-0.002L4.631,5.603
		c0.001,0.089-0.04,0.19-0.11,0.261C4.457,5.927,4.373,5.962,4.286,5.962h-0.12c-0.088,0-0.171-0.036-0.235-0.099
		C3.86,5.792,3.82,5.69,3.819,5.586L3.727,1.205C2.532,1.395,2.53,2.233,2.53,5.907c0,1.223,0.48,2.289,1.337,2.874
		C4.117,8.951,4.396,9.081,4.709,9.161z"></path></g></svg>