<svg version="1.1" id="Layer_1" xmlns="http://www.w3.org/2000/svg" xmlns:xlink="http://www.w3.org/1999/xlink" x="0px" y="0px" width="20px" height="20px" viewBox="0 0 20 20" enable-background="new 0 0 20 20" xml:space="preserve"><g><g><path class="manage_feeds_svg_icon" fill="#65ACAD" d="M18.795,7.823H16.96c-0.295,0-0.538-0.163-0.65-0.436c-0.113-0.273-0.056-0.559,0.153-0.767l1.296-1.297
			c0.191-0.19,0.297-0.444,0.297-0.713c0-0.27-0.105-0.524-0.297-0.714l-1.654-1.654c-0.379-0.381-1.046-0.381-1.427,0l-1.296,1.297
			c-0.209,0.208-0.496,0.266-0.769,0.153c-0.273-0.114-0.435-0.356-0.435-0.651V1.207c0-0.557-0.453-1.01-1.009-1.01H8.83
			c-0.555,0-1.009,0.454-1.009,1.01v1.834c0,0.295-0.161,0.537-0.435,0.651C7.114,3.806,6.827,3.746,6.619,3.539L5.322,2.241
			c-0.381-0.381-1.047-0.381-1.427,0L2.241,3.896C2.05,4.085,1.944,4.34,1.944,4.61c0,0.269,0.105,0.523,0.297,0.713l1.296,1.297
			c0.208,0.208,0.266,0.494,0.153,0.767C3.578,7.66,3.334,7.823,3.04,7.823H1.206c-0.556,0-1.009,0.452-1.009,1.008v2.339
			c0,0.557,0.454,1.009,1.009,1.009H3.04c0.295,0,0.538,0.163,0.651,0.436c0.113,0.272,0.055,0.559-0.153,0.768l-1.296,1.296
			c-0.191,0.191-0.297,0.445-0.297,0.714c0,0.271,0.105,0.524,0.297,0.715l1.654,1.653c0.381,0.381,1.045,0.382,1.427,0l1.296-1.297
			c0.208-0.209,0.496-0.267,0.768-0.152c0.274,0.112,0.435,0.354,0.435,0.65v1.834c0,0.556,0.454,1.009,1.009,1.009h2.338
			c0.558,0,1.011-0.453,1.011-1.009v-1.834c0-0.296,0.161-0.538,0.435-0.65c0.272-0.114,0.56-0.057,0.767,0.152l1.296,1.297
			c0.383,0.382,1.048,0.38,1.429,0l1.654-1.653c0.191-0.19,0.295-0.444,0.295-0.715c0-0.269-0.104-0.522-0.295-0.714l-1.298-1.296
			c-0.207-0.209-0.265-0.495-0.151-0.768c0.11-0.272,0.355-0.436,0.65-0.436h1.835c0.555,0,1.009-0.452,1.009-1.009V8.831
			C19.804,8.275,19.35,7.823,18.795,7.823z M19.078,11.17c0,0.156-0.128,0.283-0.283,0.283H16.96c-0.59,0-1.097,0.338-1.321,0.883
			c-0.226,0.545-0.108,1.143,0.311,1.56l1.296,1.296c0.111,0.111,0.111,0.291,0,0.401l-1.654,1.653c-0.108,0.11-0.289,0.11-0.399,0
			l-1.297-1.297c-0.417-0.417-1.015-0.535-1.559-0.311c-0.546,0.227-0.885,0.731-0.885,1.322v1.834c0,0.156-0.126,0.283-0.281,0.283
			H8.83c-0.155,0-0.281-0.127-0.281-0.283v-1.834c0-0.591-0.339-1.096-0.885-1.322c-0.182-0.075-0.37-0.112-0.555-0.112
			c-0.368,0-0.726,0.146-1.003,0.422l-1.296,1.297c-0.111,0.111-0.291,0.11-0.4,0l-1.654-1.654c-0.111-0.108-0.111-0.289,0-0.399
			l1.296-1.297c0.417-0.417,0.536-1.014,0.31-1.559c-0.224-0.545-0.731-0.883-1.321-0.883H1.206c-0.155,0-0.284-0.127-0.284-0.283
			V8.831c0-0.156,0.128-0.282,0.284-0.282H3.04c0.59,0,1.097-0.339,1.321-0.884c0.226-0.545,0.109-1.142-0.31-1.56L2.754,4.81
			c-0.111-0.111-0.111-0.291,0-0.401l1.654-1.654c0.109-0.11,0.289-0.11,0.4,0l1.296,1.297c0.416,0.417,1.013,0.536,1.559,0.31
			C8.209,4.137,8.549,3.63,8.549,3.041V1.207c0-0.156,0.126-0.284,0.281-0.284h2.338c0.157,0,0.283,0.127,0.283,0.284v1.834
			c0,0.59,0.339,1.096,0.885,1.322c0.546,0.225,1.142,0.106,1.559-0.31l1.297-1.297c0.11-0.11,0.291-0.11,0.399,0l1.654,1.653
			c0.111,0.111,0.111,0.291,0,0.401l-1.296,1.296c-0.417,0.417-0.536,1.014-0.311,1.56c0.225,0.544,0.731,0.883,1.321,0.883h1.835
			c0.155,0,0.283,0.126,0.283,0.282V11.17z"></path><path class="manage_feeds_svg_icon" fill="#65ACAD" d="M11.168,20H8.83c-0.665,0-1.206-0.541-1.206-1.205v-1.834c0-0.216-0.114-0.388-0.313-0.47
			c-0.2-0.083-0.404-0.04-0.554,0.11l-1.296,1.297c-0.436,0.437-1.268,0.437-1.704,0l-1.654-1.653
			c-0.229-0.227-0.354-0.53-0.354-0.854c0-0.321,0.125-0.624,0.354-0.853l1.296-1.296c0.153-0.152,0.193-0.354,0.111-0.553
			c-0.083-0.201-0.254-0.315-0.47-0.315H1.206C0.541,12.375,0,11.834,0,11.17V8.831c0-0.664,0.541-1.205,1.206-1.205H3.04
			c0.216,0,0.387-0.114,0.47-0.314c0.083-0.199,0.042-0.4-0.11-0.553L2.103,5.462C1.874,5.234,1.748,4.932,1.748,4.61
			c0-0.324,0.126-0.627,0.355-0.854l1.653-1.654c0.434-0.435,1.268-0.436,1.704,0L6.757,3.4c0.15,0.151,0.356,0.192,0.553,0.111
			c0.2-0.083,0.314-0.254,0.314-0.47V1.207C7.625,0.542,8.166,0,8.83,0h2.34c0.664,0,1.205,0.542,1.205,1.207v1.834
			c0,0.216,0.114,0.387,0.313,0.47c0.197,0.081,0.402,0.039,0.556-0.111l1.295-1.297c0.436-0.435,1.271-0.437,1.704,0l1.654,1.654
			c0.229,0.228,0.354,0.53,0.354,0.853c0,0.322-0.126,0.625-0.355,0.852l-1.295,1.297c-0.153,0.152-0.193,0.354-0.111,0.553
			c0.083,0.2,0.254,0.314,0.47,0.314h1.835C19.459,7.626,20,8.167,20,8.831v2.339c0,0.664-0.541,1.205-1.205,1.205H16.96
			c-0.217,0-0.389,0.114-0.469,0.313c-0.083,0.2-0.044,0.402,0.109,0.556l1.296,1.295c0.228,0.227,0.354,0.53,0.354,0.853
			c0,0.324-0.126,0.628-0.354,0.854l-1.653,1.653c-0.438,0.435-1.269,0.437-1.705,0l-1.297-1.297
			c-0.149-0.152-0.355-0.192-0.552-0.11c-0.2,0.082-0.314,0.254-0.314,0.47v1.834C12.375,19.459,11.833,20,11.168,20z M7.109,16.057
			c0.119,0,0.237,0.024,0.353,0.072c0.348,0.144,0.555,0.454,0.555,0.832v1.834c0,0.448,0.365,0.813,0.813,0.813h2.338
			c0.45,0,0.814-0.364,0.814-0.813v-1.834c0-0.378,0.208-0.688,0.557-0.832c0.337-0.142,0.72-0.066,0.98,0.195l1.295,1.297
			c0.29,0.291,0.861,0.289,1.152,0l1.653-1.653c0.153-0.152,0.237-0.357,0.237-0.576c0-0.218-0.084-0.423-0.237-0.575l-1.298-1.296
			c-0.266-0.269-0.339-0.635-0.194-0.981c0.14-0.343,0.459-0.557,0.832-0.557h1.835c0.448,0,0.813-0.364,0.813-0.813V8.831
			c0-0.448-0.364-0.812-0.813-0.812H16.96c-0.377,0-0.688-0.208-0.832-0.557s-0.071-0.715,0.196-0.981l1.296-1.297
			c0.154-0.153,0.239-0.357,0.239-0.574c0-0.218-0.085-0.422-0.238-0.575L15.966,2.38c-0.289-0.292-0.859-0.291-1.149,0
			l-1.296,1.297c-0.262,0.261-0.643,0.337-0.981,0.195c-0.349-0.145-0.557-0.456-0.557-0.832V1.207c0-0.449-0.364-0.814-0.813-0.814
			H8.83c-0.448,0-0.813,0.365-0.813,0.814v1.834c0,0.376-0.208,0.688-0.556,0.832c-0.337,0.142-0.72,0.066-0.98-0.195L5.183,2.38
			c-0.29-0.292-0.86-0.29-1.148,0L2.38,4.035C2.226,4.187,2.141,4.392,2.141,4.61c0,0.217,0.085,0.421,0.238,0.574l1.297,1.297
			c0.267,0.266,0.34,0.632,0.195,0.981S3.417,8.019,3.04,8.019H1.206c-0.448,0-0.813,0.364-0.813,0.812v2.339
			c0,0.448,0.365,0.813,0.813,0.813H3.04c0.377,0,0.688,0.208,0.832,0.557c0.145,0.348,0.072,0.714-0.195,0.981L2.38,14.816
			c-0.154,0.154-0.239,0.359-0.239,0.575c0,0.219,0.085,0.422,0.238,0.576l1.656,1.653c0.29,0.291,0.858,0.291,1.148,0l1.296-1.298
			C6.652,16.151,6.875,16.057,7.109,16.057z M11.17,19.274H8.83c-0.263,0-0.478-0.216-0.478-0.479v-1.834
			c0-0.508-0.292-0.945-0.763-1.141c-0.467-0.194-0.99-0.088-1.346,0.267l-1.295,1.298c-0.181,0.181-0.499,0.181-0.679-0.001
			L2.616,15.73c-0.089-0.09-0.14-0.208-0.141-0.337c0-0.129,0.049-0.25,0.141-0.342l1.296-1.296c0.36-0.36,0.462-0.875,0.268-1.345
			c-0.193-0.47-0.631-0.762-1.141-0.762H1.206c-0.265,0-0.48-0.215-0.48-0.479V8.831c0-0.264,0.215-0.479,0.48-0.479H3.04
			c0.509,0,0.946-0.292,1.14-0.762c0.196-0.472,0.094-0.987-0.266-1.346L2.616,4.949C2.524,4.857,2.475,4.737,2.475,4.608
			c0-0.128,0.05-0.249,0.142-0.338L4.27,2.616c0.178-0.179,0.495-0.182,0.677,0l1.297,1.298c0.355,0.356,0.88,0.461,1.345,0.268
			c0.471-0.194,0.763-0.632,0.763-1.141V1.207c0-0.265,0.214-0.48,0.478-0.48h2.338c0.265,0,0.479,0.215,0.479,0.48v1.834
			c0,0.509,0.292,0.946,0.764,1.142c0.463,0.19,0.989,0.085,1.346-0.268l1.295-1.297c0.184-0.181,0.499-0.181,0.68,0.001
			l1.653,1.652c0.091,0.091,0.141,0.212,0.141,0.341c0,0.128-0.051,0.249-0.142,0.338l-1.296,1.296
			c-0.36,0.359-0.462,0.875-0.268,1.346c0.193,0.47,0.631,0.762,1.14,0.762h1.835c0.264,0,0.479,0.215,0.479,0.479v2.339
			c0,0.265-0.216,0.479-0.479,0.479H16.96c-0.509,0-0.946,0.292-1.139,0.762c-0.196,0.471-0.094,0.986,0.266,1.346l1.298,1.295
			c0.187,0.189,0.187,0.493,0,0.68l-1.654,1.654c-0.18,0.18-0.496,0.18-0.678,0l-1.297-1.298c-0.354-0.354-0.881-0.46-1.345-0.268
			c-0.472,0.195-0.764,0.633-0.764,1.141v1.834C11.647,19.059,11.434,19.274,11.17,19.274z M7.109,15.33
			c0.214,0,0.427,0.043,0.63,0.128c0.62,0.257,1.006,0.832,1.006,1.503v1.834c0,0.048,0.039,0.087,0.085,0.087h2.34
			c0.047,0,0.085-0.039,0.085-0.087v-1.834c0-0.671,0.386-1.246,1.007-1.503c0.608-0.254,1.306-0.113,1.771,0.353l1.297,1.297
			c0.043,0.042,0.077,0.044,0.121,0.001l1.655-1.654c0.036-0.034,0.036-0.09-0.001-0.125l-1.295-1.295
			c-0.475-0.473-0.61-1.152-0.353-1.772c0.254-0.62,0.83-1.005,1.502-1.005h1.835c0.048,0,0.087-0.039,0.087-0.087V8.831
			c0-0.047-0.039-0.086-0.087-0.086H16.96c-0.672,0-1.248-0.385-1.503-1.004c-0.257-0.62-0.12-1.3,0.354-1.773l1.295-1.296
			c0.022-0.022,0.026-0.048,0.026-0.061s-0.003-0.04-0.026-0.062l-1.654-1.654c-0.045-0.046-0.079-0.043-0.123,0l-1.296,1.297
			c-0.466,0.465-1.162,0.604-1.771,0.353c-0.621-0.257-1.007-0.833-1.007-1.504V1.207c0-0.048-0.039-0.087-0.087-0.087H8.83
			c-0.047,0-0.085,0.039-0.085,0.087v1.834c0,0.671-0.386,1.247-1.006,1.503C7.13,4.794,6.431,4.655,5.966,4.19L4.67,2.893
			C4.626,2.849,4.591,2.85,4.549,2.892L2.893,4.548C2.871,4.57,2.867,4.596,2.867,4.609s0.003,0.04,0.026,0.062l1.296,1.295
			c0.475,0.473,0.61,1.153,0.353,1.774C4.287,8.359,3.712,8.745,3.04,8.745H1.206c-0.048,0-0.087,0.04-0.087,0.086v2.339
			c0,0.048,0.04,0.087,0.087,0.087H3.04c0.672,0,1.249,0.385,1.503,1.005c0.256,0.618,0.121,1.298-0.354,1.771L2.893,15.33
			c-0.023,0.021-0.026,0.049-0.026,0.062c0,0.014,0.004,0.039,0.025,0.06l1.656,1.655c0.044,0.045,0.078,0.044,0.123,0l1.296-1.297
			C6.278,15.5,6.683,15.33,7.109,15.33z"></path></g><g><path class="manage_feeds_svg_icon" fill="#65ACAD" d="M10,6.732c-1.802,0-3.269,1.467-3.269,3.268c0,1.802,1.467,3.269,3.269,3.269s3.269-1.467,3.269-3.269
			C13.269,8.199,11.802,6.732,10,6.732z M10,12.543c-1.402,0-2.543-1.142-2.543-2.543c0-1.401,1.141-2.541,2.543-2.541
			c1.401,0,2.543,1.14,2.543,2.541C12.543,11.401,11.401,12.543,10,12.543z"></path><path class="manage_feeds_svg_icon" fill="#65ACAD" d="M10,13.465c-1.911,0-3.465-1.554-3.465-3.465c0-1.91,1.554-3.464,3.465-3.464S13.465,8.09,13.465,10
			C13.465,11.911,11.911,13.465,10,13.465z M10,6.929c-1.695,0-3.072,1.377-3.072,3.071c0,1.694,1.377,3.072,3.072,3.072
			c1.694,0,3.072-1.378,3.072-3.072C13.072,8.306,11.694,6.929,10,6.929z M10,12.739c-1.511,0-2.739-1.229-2.739-2.739
			c0-1.509,1.229-2.737,2.739-2.737S12.739,8.491,12.739,10C12.739,11.511,11.511,12.739,10,12.739z M10,7.655
			c-1.294,0-2.347,1.052-2.347,2.345c0,1.294,1.052,2.347,2.347,2.347c1.294,0,2.347-1.053,2.347-2.347
			C12.347,8.707,11.294,7.655,10,7.655z"></path></g></g></svg>