<svg version="1.1" id="Layer_1" xmlns="http://www.w3.org/2000/svg" xmlns:xlink="http://www.w3.org/1999/xlink" x="0px" y="0px" width="20px" height="20px" viewBox="0 0 20 20" enable-background="new 0 0 20 20" xml:space="preserve"><g><path class="meetingIconProps" fill="none" stroke-miterlimit="10" d="M19.29,8.45c0-1.115-0.903-2.019-2.019-2.019
		s-2.019,0.903-2.019,2.019v3.556h-1.956c-0.965,0-1.746,0.781-1.746,1.746c0,0.061,0.013,0.117,0.018,0.176
		c-0.005,0.029-0.018,0.057-0.018,0.088v4.364c0,0.258,0.21,0.468,0.469,0.468h2.691c0.26,0,0.47-0.21,0.47-0.468v-2.881h2.362
		c0.965,0,1.745-0.783,1.745-1.747c0-0.064-0.011-0.126-0.019-0.188c0.008-0.067,0.021-0.135,0.021-0.204V8.45z"></path><path class="meetingIconProps" fill="none" stroke-miterlimit="10" d="M17.271,1.153c-1.23,0-2.229,0.998-2.229,2.228
		c0,1.231,0.998,2.227,2.229,2.227S19.5,4.612,19.5,3.381C19.5,2.151,18.502,1.153,17.271,1.153z M17.271,5.141
		c-0.973,0-1.761-0.789-1.761-1.76c0-0.973,0.788-1.76,1.761-1.76s1.761,0.788,1.761,1.76C19.032,4.352,18.244,5.141,17.271,5.141z"></path><path class="meetingIconProps" fill="none" stroke-miterlimit="10" d="M0.709,8.45c0-1.115,0.904-2.019,2.019-2.019
		c1.114,0,2.019,0.903,2.019,2.019v3.556h1.956c0.965,0,1.746,0.781,1.746,1.746c0,0.061-0.013,0.117-0.019,0.176
		c0.006,0.029,0.019,0.057,0.019,0.088v4.364c0,0.258-0.21,0.468-0.468,0.468H5.289c-0.26,0-0.468-0.21-0.468-0.468v-2.881H2.457
		c-0.964,0-1.745-0.783-1.745-1.747c0-0.064,0.011-0.126,0.019-0.188c-0.007-0.067-0.021-0.135-0.021-0.204V8.45z"></path><path class="meetingIconProps" fill="none" stroke-miterlimit="10" d="M0.5,3.381c0,1.231,0.998,2.227,2.229,2.227
		c1.231,0,2.229-0.996,2.229-2.227c0-1.229-0.999-2.228-2.229-2.228C1.498,1.153,0.5,2.151,0.5,3.381z M0.968,3.381
		c0-0.973,0.789-1.76,1.761-1.76c0.973,0,1.761,0.788,1.761,1.76c0,0.971-0.788,1.76-1.761,1.76
		C1.756,5.141,0.968,4.352,0.968,3.381z"></path></g></svg>
