<svg version="1.1" id="Layer_1" xmlns="http://www.w3.org/2000/svg" xmlns:xlink="http://www.w3.org/1999/xlink" x="0px" y="0px" width="20px" height="20px" viewBox="0 0 20 20" enable-background="new 0 0 20 20" xml:space="preserve"><rect y="0" display="none" fill="#933F3F" width="20" height="20"></rect><g><g><path class="offlineIconProps" fill="#64B9BC" d="M10,0.5c-5.247,0-9.5,4.253-9.5,9.5c0,5.248,4.253,9.5,9.5,9.5c5.246,0,9.499-4.253,9.499-9.5
			C19.499,4.753,15.246,0.5,10,0.5z M10,18.76c-4.838,0-8.761-3.921-8.761-8.76c0-4.838,3.922-8.761,8.761-8.761
			c4.838,0,8.761,3.923,8.761,8.761C18.761,14.837,14.838,18.76,10,18.76z"></path><path class="offlineIconProps" fill="#64B9BC" d="M10,19.85c-5.431,0-9.85-4.419-9.85-9.85s4.418-9.85,9.85-9.85c5.431,0,9.849,4.419,9.849,9.85
			S15.431,19.85,10,19.85z M10,0.85c-5.045,0-9.149,4.104-9.149,9.15S4.955,19.15,10,19.15s9.149-4.105,9.149-9.151
			S15.045,0.85,10,0.85z M10,19.109c-5.023,0-9.111-4.087-9.111-9.11c0-5.024,4.087-9.111,9.111-9.111S19.11,4.976,19.11,10
			C19.11,15.022,15.023,19.109,10,19.109z M10,1.588c-4.638,0-8.411,3.773-8.411,8.411c0,4.637,3.773,8.411,8.411,8.411
			s8.411-3.773,8.411-8.411C18.411,5.361,14.638,1.588,10,1.588z"></path></g><g><rect class="offlineIconProps" x="5.301" y="9.3" fill="#64B9BC" width="9.399" height="1.4"></rect><path class="offlineIconProps" fill="#64B9BC" d="M15.05,11.05H4.951v-2.1H15.05V11.05z M5.651,10.35h8.7v-0.7h-8.7V10.35z"></path></g></g></svg>