<svg version="1.1" id="Layer_1" xmlns="http://www.w3.org/2000/svg" xmlns:xlink="http://www.w3.org/1999/xlink" x="0px" y="0px" width="30px" height="30px" viewBox="0 0 30 30" enable-background="new 0 0 30 30" xml:space="preserve" class="oneDriveIcon"><g id="cloud-upload" class="oneDriveIconGeom1"><path fill="#30B4F4" d="M24.25,12.36C23.375,7.874,19.625,4.442,15,4.442c-3.625,0-6.75,2.111-8.25,5.278
			C2.875,10.249,0,13.548,0,17.64c0,4.354,3.375,7.918,7.5,7.918h16.25c3.5,0,6.25-2.903,6.25-6.599
			C30,15.528,27.375,12.624,24.25,12.36z M17.5,16.319v5.279h-5v-5.279H8.75L15,9.721l6.25,6.599H17.5z"></path></g><g id="cloud-upload" class="oneDriveIconGeom2"><path fill="#30B4F4" stroke="#FFFFFF" stroke-miterlimit="10" d="M23.634,12.536c-0.817-4.187-4.317-7.39-8.634-7.39
			c-3.383,0-6.3,1.97-7.7,4.926C3.683,10.566,1,13.645,1,17.465c0,4.063,3.15,7.39,7,7.39h15.167c3.267,0,5.833-2.71,5.833-6.159
			C29,15.492,26.55,12.782,23.634,12.536z M17.333,16.23v4.928h-4.667V16.23h-3.5L15,10.073l5.833,6.16h-3.5V16.23z"></path></g></svg>