<svg version="1.1" id="Layer_1" xmlns="http://www.w3.org/2000/svg" xmlns:xlink="http://www.w3.org/1999/xlink" x="0px" y="0px" width="30px" height="30px" viewBox="0 0 20 20" enable-background="new 0 0 20 20" xml:space="preserve"><rect display="none" fill="#DD7878" width="30" height="30"></rect><g><path fill="#14B8BA" d="M17.157,12.026c-0.009,0.054,0.126-0.031,0.2-0.073c0.533-0.295,0.969-0.818,1.072-1.543
		c1.128,0.517,2.001,2.261,1.345,3.906c-0.38,0.949-1.261,1.75-2.381,1.998c-0.613,0.137-1.388,0.073-2.125,0.073
		c-2.172,0-4.345,0-6.559,0c-1.464,0-2.956,0.09-4.341-0.019c-1.298-0.101-2.278-0.661-2.998-1.381
		c-0.725-0.726-1.29-1.741-1.362-2.997c-0.08-1.375,0.425-2.511,1.09-3.288C1.78,7.906,2.625,7.346,3.859,7.104
		c-0.472,1.182-0.49,3.023-0.036,4.232c-0.456-2.031,0.17-3.928,1.036-5.123c0.905-1.249,2.195-2.207,3.942-2.525
		c2.097-0.382,3.859,0.284,5.05,1.199c1.236,0.95,2.109,2.22,2.397,4.069c0.138-0.701-0.098-1.342-0.308-1.817
		c1.371,0.281,2.415,1.327,2.307,2.943c-0.059,0.879-0.532,1.495-1.072,1.943C17.17,12.026,17.164,12.026,17.157,12.026z"></path><path fill="#FFFFFF" d="M15.277,9.886c0,2.916-2.364,5.28-5.28,5.28s-5.28-2.364-5.28-5.28c0-2.916,2.364-5.28,5.28-5.28
		S15.277,6.97,15.277,9.886z M9.997,5.177c-2.601,0-4.709,2.108-4.709,4.709c0,2.6,2.108,4.709,4.709,4.709s4.71-2.109,4.71-4.709
		C14.707,7.286,12.598,5.177,9.997,5.177z"></path><path id="P_1_" fill="#FFFFFF" d="M10.96,7.209c0.775,0,1.689,0.865,1.689,1.934c0,1.069-0.906,1.935-1.683,1.935H9.172v1.336
		c0,0.338-0.279,0.611-0.617,0.611s-0.617-0.273-0.617-0.611v-1.325l0,0V8.031c0-0.449,0.388-0.828,0.836-0.828h2.179 M11.425,9.164
		c0-0.394-0.324-0.711-0.718-0.711h0.004H9.172v1.422h1.539h-0.004C11.101,9.875,11.425,9.558,11.425,9.164z"></path></g></svg>