<svg version="1.1" id="Layer_1" xmlns="http://www.w3.org/2000/svg" xmlns:xlink="http://www.w3.org/1999/xlink" x="0px" y="0px" width="20px" height="20px" viewBox="0 0 20 20" enable-background="new 0 0 20 20" xml:space="preserve"><g><path class="phoneIconProps" stroke-miterlimit="10" d="M19.487,16.138c-0.06-0.456-0.325-0.85-0.724-1.08l-4.688-2.698
		c-0.573-0.33-1.302-0.234-1.77,0.234l-0.924,0.923c-0.245,0.246-0.635,0.269-0.904,0.052c-0.728-0.587-1.444-1.23-2.131-1.917
		c-0.685-0.685-1.33-1.401-1.915-2.13c-0.217-0.269-0.196-0.657,0.05-0.904l0.922-0.924c0.469-0.468,0.566-1.195,0.234-1.77
		L4.941,1.236c-0.23-0.4-0.623-0.662-1.08-0.724C3.405,0.454,2.956,0.604,2.63,0.93L1.24,2.322C0.27,3.292,0.252,5.068,1.195,7.323
		c0.907,2.167,2.598,4.554,4.763,6.719c2.165,2.165,4.551,3.856,6.72,4.763c1.108,0.464,2.102,0.695,2.939,0.695
		c0.867,0,1.568-0.247,2.06-0.739l1.392-1.392C19.395,17.044,19.549,16.596,19.487,16.138L19.487,16.138z M13.771,12.893
		l4.687,2.698c0.232,0.136,0.385,0.363,0.421,0.628c0.028,0.223-0.029,0.441-0.161,0.618l-6.229-3.555l0.252-0.252
		C13.014,12.757,13.437,12.701,13.771,12.893L13.771,12.893z M3.781,1.124c0.266,0.035,0.495,0.187,0.627,0.419L7.107,6.23
		C7.3,6.564,7.244,6.988,6.971,7.259L6.739,7.492L3.164,1.283c0.146-0.108,0.321-0.167,0.502-0.167
		C3.704,1.116,3.744,1.119,3.781,1.124L3.781,1.124z M17.244,18.325c-0.772,0.772-2.35,0.739-4.329-0.089
		c-2.095-0.877-4.411-2.521-6.521-4.63c-2.11-2.11-3.755-4.426-4.631-6.521c-0.828-1.98-0.86-3.557-0.089-4.328l1.033-1.032
		l3.581,6.218L6.047,8.182C5.58,8.651,5.539,9.393,5.953,9.907c0.6,0.746,1.26,1.479,1.961,2.181c0.7,0.701,1.433,1.36,2.178,1.959
		c0.516,0.416,1.256,0.375,1.726-0.095l0.219-0.219l6.237,3.561L17.244,18.325L17.244,18.325z"></path></g></svg>