<svg version="1.1" id="Layer_1" xmlns="http://www.w3.org/2000/svg" xmlns:xlink="http://www.w3.org/1999/xlink" x="0px" y="0px" width="20px" height="20px" viewBox="0 0 20 20" enable-background="new 0 0 20 20" xml:space="preserve" style="margin-left: 2.5px; margin-top: 3px;"><g><path fill="#64B9BC" d="M16.004,14.297l-3.186-1.592c-0.299-0.151-0.485-0.453-0.485-0.789v-1.127
		c0.076-0.093,0.155-0.2,0.238-0.317c0.414-0.583,0.745-1.231,0.985-1.934c0.47-0.214,0.776-0.681,0.776-1.205V6
		c0-0.321-0.12-0.633-0.333-0.875V3.352c0.017-0.184,0.092-1.276-0.697-2.175C12.617,0.396,11.506,0,9.998,0
		C8.491,0,7.382,0.396,6.696,1.177C5.907,2.076,5.98,3.168,5.999,3.352v1.772C5.786,5.367,5.666,5.679,5.666,6v1.334
		c0,0.406,0.184,0.783,0.5,1.035c0.304,1.209,0.944,2.122,1.167,2.414v1.103c0,0.322-0.176,0.618-0.459,0.773l-2.972,1.621
		c-0.967,0.528-1.567,1.539-1.567,2.64V18c0,1.581,5.014,2,7.664,2c2.655,0,7.668-0.419,7.668-2v-1.016
		C17.666,15.84,17.028,14.809,16.004,14.297L16.004,14.297z M16.999,18c0,0.452-2.47,1.331-7.001,1.331C5.47,19.331,3,18.452,3,18
		v-1.081c0-0.854,0.468-1.643,1.219-2.053l2.974-1.622C7.69,12.971,8,12.45,8,11.885v-1.341l-0.079-0.092
		c-0.007-0.01-0.825-0.998-1.136-2.354L6.755,7.964L6.641,7.892C6.447,7.768,6.333,7.559,6.333,7.333V6
		c0-0.186,0.078-0.362,0.224-0.491l0.109-0.101V3.333L6.665,3.29C6.662,3.281,6.548,2.356,7.197,1.616
		c0.554-0.63,1.497-0.948,2.8-0.948c1.303,0,2.244,0.314,2.797,0.941c0.65,0.734,0.541,1.672,0.54,1.68l-0.003,2.118l0.111,0.101
		C13.586,5.638,13.664,5.814,13.664,6v1.334c0,0.29-0.188,0.545-0.473,0.633l-0.165,0.052l-0.056,0.164
		c-0.221,0.693-0.539,1.335-0.943,1.904c-0.098,0.14-0.193,0.266-0.279,0.359l-0.083,0.095v1.376c0,0.59,0.329,1.12,0.856,1.385
		l3.184,1.592c0.799,0.398,1.294,1.201,1.294,2.092V18z"></path></g></svg>