<svg version="1.1" id="Layer_1" xmlns="http://www.w3.org/2000/svg" xmlns:xlink="http://www.w3.org/1999/xlink" x="0px" y="0px" width="20px" height="20px" viewBox="0 0 20 20" enable-background="new 0 0 20 20" xml:space="preserve"><rect display="none" fill="#E59898" width="20" height="20"></rect><g><circle fill="#FF0000" cx="10" cy="10" r="10"></circle><g><path fill="#FFFFFF" d="M10.447,12.993c0-0.623,0.147-1.197,0.392-1.711c-0.652-0.184-1.399-0.297-2.258-0.297
			c-4.734,0-6.175,3.396-6.175,3.396v1.748h9.606C11.058,15.431,10.447,14.31,10.447,12.993z"></path><path fill="#FFFFFF" d="M8.581,8.927c1.748,0,3.087-1.338,3.087-3.086c0-1.75-1.339-3.088-3.087-3.088
			c-1.75,0-3.087,1.338-3.087,3.088C5.494,7.589,6.831,8.927,8.581,8.927z"></path></g><path fill="#FFFFFF" d="M14.341,9.739c-1.845,0-3.256,1.41-3.256,3.254c0,1.846,1.411,3.254,3.256,3.254
		c1.844,0,3.253-1.408,3.253-3.254C17.594,11.149,16.185,9.739,14.341,9.739z M14.341,15.765c-1.57,0-2.771-1.199-2.771-2.771
		c0-1.57,1.201-2.771,2.771-2.771s2.771,1.201,2.771,2.771C17.111,14.565,15.911,15.765,14.341,15.765z"></path><circle fill="#FFFFFF" cx="14.339" cy="12.993" r="3.254"></circle><g><path fill="#FF0000" d="M13.187,14.785l-0.641-0.641l2.943-2.943l0.643,0.641L13.187,14.785z"></path><path fill="#FF0000" d="M16.13,14.145l-0.641,0.641l-2.943-2.943l0.641-0.641L16.13,14.145z"></path></g></g></svg>