<svg version="1.1" id="Layer_1" xmlns="http://www.w3.org/2000/svg" xmlns:xlink="http://www.w3.org/1999/xlink" x="0px" y="0px" width="20px" height="20px" viewBox="0 0 20 20" enable-background="new 0 0 20 20" xml:space="preserve"><path fill="#64B9BC" d="M6.766,17.847c-1.94,0-3.861-0.535-5.557-1.551L0,15.571l1.408,0.025c0.046,0.002,0.119,0.006,0.234,0.006
	c0.537,0,2.244-0.086,3.996-1.076c-1.316-0.391-2.404-1.41-2.852-2.74l-0.223-0.662l0.604,0.16
	c-0.969-0.746-1.602-1.889-1.671-3.166l-0.033-0.61l0.56,0.244C2.127,7.798,2.23,7.837,2.335,7.872
	C1.54,6.758,1.059,5.038,2.063,3.208l0.276-0.504l0.353,0.455c1.685,2.177,4.182,3.505,6.904,3.688
	C9.58,6.678,9.568,6.522,9.568,6.474c0-2.022,1.537-4.112,4.111-4.112c1.08,0,2.121,0.429,2.887,1.185
	c1.027-0.241,2.008-0.84,2.02-0.847l0.889-0.547l-0.338,0.989c-0.16,0.474-0.406,0.911-0.721,1.292
	c0.172-0.056,0.34-0.121,0.516-0.197L20,3.716l-0.449,0.965c-0.371,0.796-0.99,1.455-1.758,1.875
	c0.17,2.638-0.916,5.583-2.867,7.743c-1.448,1.605-4.027,3.523-8.092,3.549H6.766z M2.805,16.269
	c1.257,0.543,2.604,0.826,3.961,0.826H6.83c3.787-0.025,6.189-1.809,7.537-3.301c1.877-2.08,2.896-4.926,2.656-7.424l-0.025-0.266
	l0.24-0.112c0.383-0.178,0.725-0.426,1.014-0.726c-0.322,0.08-0.664,0.141-1.063,0.188l-0.287,0.036l-0.227-0.572l0.264-0.201
	c0.367-0.215,0.688-0.496,0.945-0.824c-0.408,0.174-0.893,0.345-1.377,0.436l-0.205,0.038l-0.141-0.155
	c-0.637-0.698-1.541-1.097-2.482-1.097c-2.102,0-3.357,1.708-3.357,3.358c0,0.1,0.051,0.555,0.066,0.672l0.172,0.486L10.016,7.62
	C7.1,7.555,4.387,6.278,2.48,4.09c-0.752,1.98,0.514,3.561,1.118,4.034L4.48,8.819L3.357,8.797C3.007,8.792,2.662,8.745,2.33,8.655
	c0.297,1.323,1.341,2.385,2.699,2.676l1.486,0.32l-1.463,0.412c-0.255,0.072-0.545,0.107-0.861,0.107
	c-0.146,0-0.289-0.008-0.418-0.02c0.588,1.037,1.685,1.734,2.896,1.791l1.06,0.053l-0.854,0.627
	C5.41,15.7,3.893,16.116,2.805,16.269L2.805,16.269z"></path></svg>