<svg version="1.1" id="Layer_1" xmlns="http://www.w3.org/2000/svg" xmlns:xlink="http://www.w3.org/1999/xlink" x="0px" y="0px" fill="#f7b400" viewBox="0 0 20 20" enable-background="new 0 0 20 20" xml:space="preserve" class="vcProps"><g><path d="M15.202,13.691c0.046,0.418,0.067,0.83,0.077,1.232h1.957v-1.232H15.202z"></path><path d="M11.553,6.988c0.236,0.391,0.459,0.801,0.666,1.23h5.018v-1.23H11.553z"></path><path d="M13.075,10.342c0.022,0.068,0.05,0.137,0.073,0.207c0.105,0.342,0.2,0.684,0.283,1.023h3.805v-1.23H13.075z
		"></path><path class="borderVC" d="M18.054,2.953H1.945C0.871,2.953,0,3.916,0,5.104v9.795c0,1.188,0.871,2.148,1.945,2.148h16.108
		c1.075,0,1.946-0.961,1.946-2.148V5.104C20,3.916,19.129,2.953,18.054,2.953z M19.367,14.49c0,1.088-0.797,1.971-1.782,1.971H2.415
		c-0.985,0-1.784-0.883-1.784-1.971V5.512c0-1.09,0.799-1.971,1.784-1.971h15.17c0.985,0,1.782,0.881,1.782,1.971V14.49z"></path><path d="M4.952,7.35c0-1.289,0.984-2.273,2.271-2.273c1.289,0,2.273,0.984,2.273,2.273
		c0,1.287-0.984,2.273-2.273,2.273C5.937,9.623,4.952,8.637,4.952,7.35z M7.224,11.137c-3.484,0-4.545,2.502-4.545,2.502v1.287
		h9.092v-1.287C11.771,13.639,10.71,11.137,7.224,11.137z"></path></g></svg>